<svg width="364" height="101" viewBox="0 0 364 101" fill="none" xmlns="http://www.w3.org/2000/svg">
<g filter="url(#filter0_d_143_4710)">
<path d="M52.8161 55.1661C52.8161 56.7536 52.4285 58.738 51.2662 60.3255C50.104 62.3099 48.9418 63.8974 47.0046 65.8818C45.0675 67.4693 42.3554 69.0568 39.6434 69.8506C36.544 71.0412 33.0571 71.4381 29.5703 71.4381C21.4343 71.4381 15.2354 69.0568 10.5863 64.2943C5.93713 59.5317 4 53.1817 4 44.8472C4 39.2909 5.16224 34.5284 7.09938 30.1627C9.03653 25.7971 12.136 22.622 16.0103 20.2408C19.8845 17.8595 24.5337 16.6689 29.9577 16.6689C33.4446 16.6689 36.544 17.0657 39.256 18.2564C41.968 19.447 44.2926 20.6376 46.2297 22.2252C48.1669 23.8127 49.7166 25.4002 50.8789 27.3846C52.0412 29.369 52.4286 30.9565 52.4286 32.544C52.4286 34.1315 52.0412 35.3222 50.8789 36.5128C49.7166 37.7034 48.1669 38.1003 46.6172 38.1003C45.4549 38.1003 44.68 37.7034 43.9051 37.3065C43.1303 36.9097 42.3554 35.719 41.5805 34.5284C40.0308 32.1471 38.4811 30.1627 36.544 28.9721C34.9943 27.7814 32.6697 26.9877 29.9577 26.9877C26.0834 26.9877 22.984 28.5752 20.6594 31.7503C18.3348 34.9253 17.1726 38.8941 17.1726 44.4504C17.1726 46.8316 17.56 49.2129 17.9474 51.1973C18.7223 53.1817 19.4971 55.166 20.6594 56.7536C21.8217 58.3411 23.3714 59.5317 24.9211 59.9286C26.4708 60.7224 28.408 61.1193 30.3451 61.1193C33.0571 61.1193 34.9943 60.3255 36.9314 59.1349C38.8686 57.9442 40.4183 55.9599 41.968 53.5786C42.7428 51.9911 43.5177 50.8004 44.68 50.0066C45.4549 49.2129 46.6171 48.816 48.1669 48.816C49.7166 48.816 51.2663 49.6098 52.0412 50.8004C52.4286 52.3879 52.8161 53.9754 52.8161 55.1661Z" fill="#FBFBFB"/>
<path d="M74.2476 7.82509V64.8036C74.2476 66.755 73.4071 68.316 72.1465 69.4868C70.8858 70.6576 69.205 71.4381 67.1038 71.4381C65.0027 71.4381 63.3218 70.6576 62.0611 69.4868C60.8004 68.316 59.96 66.755 59.96 64.8036V7.82509C59.96 5.87377 60.8004 4.31272 62.0611 3.14193C63.3218 1.97114 65.0027 1.19061 67.1038 1.19061C71.7263 1.19061 74.2476 3.14192 74.2476 7.82509Z" fill="#FBFBFB"/>
<path d="M105.799 21.4315C112.888 21.4315 118.795 23.7944 123.915 28.9141C128.641 33.64 131.398 39.9413 131.398 47.0301C131.398 54.119 129.035 60.0263 123.915 65.1461C119.189 69.872 112.888 72.6288 105.799 72.6288C98.7102 72.6288 92.8028 70.2658 87.6831 65.1461C82.9572 60.4202 80.2004 54.119 80.2004 47.0301C80.2004 39.9413 82.5634 34.0339 87.6831 28.9141C92.8028 23.7944 98.7102 21.4315 105.799 21.4315ZM105.799 34.8215C102.648 34.8215 99.4979 36.003 97.5287 38.366C95.1658 40.7289 93.9843 43.4857 93.9843 46.6363C93.9843 49.7869 95.1658 52.9375 97.5287 55.3004C99.8917 57.6634 102.648 58.8449 105.799 58.8449C108.95 58.8449 112.1 57.6634 114.463 55.3004C116.826 52.9375 118.008 50.1807 118.008 46.6363C118.008 43.4857 116.826 40.3351 114.463 38.366C112.1 36.3968 109.344 34.8215 105.799 34.8215Z" fill="#FBFBFB"/>
<path d="M151.379 27.3846V49.6098C151.379 51.9911 152.158 53.9754 153.717 55.1661C155.275 56.7536 157.224 57.5474 159.172 57.5474C161.51 57.5474 163.069 56.7536 164.627 55.1661C166.186 53.5786 166.965 51.5942 166.965 49.6098V26.9877C166.965 25.0033 167.745 23.4158 168.914 22.2252C170.083 21.0345 171.641 20.2408 173.59 20.2408C175.538 20.2408 177.097 21.0345 178.266 22.2252C179.435 23.4158 180.214 25.0033 180.214 26.9877V49.6098C180.214 55.563 178.266 60.7224 173.979 65.088C170.083 69.4537 165.017 71.4381 158.783 71.4381C152.938 71.4381 147.872 69.4537 143.586 65.088C139.689 61.1193 137.351 55.9599 137.351 49.6098V27.3846C137.351 25.4002 138.13 23.8127 139.299 22.6221C140.468 21.4314 142.027 20.6377 143.975 20.6377C145.924 20.6377 147.482 21.4314 148.651 22.6221C150.6 23.8127 151.379 25.4002 151.379 27.3846Z" fill="#FBFBFB"/>
<path d="M212.957 34.1798C209.806 34.1798 206.655 35.3441 204.686 37.6727C202.323 40.0014 201.142 42.7181 201.142 46.2111C201.142 49.316 202.323 52.4208 204.686 54.3614C207.049 56.69 209.806 57.8543 212.957 57.8543C216.107 57.8543 219.258 56.69 221.621 54.3614C223.984 52.0327 225.165 49.316 225.165 46.2111V7.78843C225.165 5.8479 225.953 4.29548 227.134 3.13115C228.316 1.96683 229.891 1.19061 231.86 1.19061C233.829 1.19061 235.405 1.96683 236.586 3.13115C237.768 4.29548 238.555 5.8479 238.555 7.78843V46.2111C238.555 53.197 236.192 59.0187 231.073 64.0641C225.953 68.7214 220.045 71.4381 212.957 71.4381C205.868 71.4381 199.96 69.1095 194.841 64.0641C190.115 59.4068 187.358 53.197 187.358 46.2111C187.358 39.2251 189.721 33.4036 194.841 28.3582C199.566 23.7009 205.868 20.9841 212.957 20.9841C214.926 20.9841 216.501 21.7603 217.683 22.9246C218.864 24.0889 219.652 25.6414 219.652 27.5819C219.652 29.5224 218.864 31.0749 217.683 32.2392C216.895 33.7917 214.926 34.1798 212.957 34.1798Z" fill="#FBFBFB"/>
<path d="M266.337 71.1599C260.383 71.1599 255.224 69.1862 250.858 64.8443C246.89 60.8971 244.508 55.7657 244.508 49.4502V26.951C244.508 24.9774 245.302 23.3986 246.493 22.2144C247.683 21.0302 249.271 20.2408 251.255 20.2408C255.621 20.2408 258.002 22.6091 258.002 26.951V49.4502C258.002 51.8185 258.796 53.7921 260.383 54.9763C261.971 56.5552 263.955 57.3446 265.94 57.3446C268.321 57.3446 269.909 56.5552 271.496 54.9763C273.084 53.3974 273.877 51.4238 273.877 49.4502V26.951C273.877 24.9774 274.671 23.3986 275.862 22.2144C277.052 21.0302 278.64 20.2408 280.624 20.2408C282.609 20.2408 284.196 21.0302 285.387 22.2144C286.577 23.3986 287.371 24.9774 287.371 26.951V71.1599C287.371 77.0807 285.387 82.212 281.021 86.554C276.655 90.5012 271.893 92.8695 265.543 92.8695H265.146C263.162 92.8695 261.574 92.0801 260.383 90.8959C259.193 89.7118 258.399 88.1328 258.399 86.1592C258.399 84.1856 259.193 82.6068 260.383 81.4226C261.574 80.2384 263.162 79.449 265.146 79.449H265.543C267.924 79.449 269.512 78.6596 271.099 77.0807C272.687 75.5018 273.48 73.5282 273.48 71.5546V69.581C271.893 70.7651 269.115 71.1599 266.337 71.1599Z" fill="#FBFBFB"/>
<path d="M331.095 49.7041H307.889V64.8403C307.889 66.7808 307.102 68.3332 305.922 69.4976C304.742 70.6619 303.169 71.4381 301.202 71.4381C299.235 71.4381 297.662 70.6619 296.482 69.4976C295.302 68.3332 294.515 66.7808 294.515 64.8403V22.5365C294.515 16.7149 296.482 11.6695 300.809 7.4003C304.742 3.51922 309.855 1.19061 316.149 1.19061C322.049 1.19061 327.162 3.13112 331.489 7.4003C335.422 11.6695 337.782 16.3268 337.782 22.5365V23.3127C337.782 25.2533 336.995 26.8057 335.815 27.97C334.635 29.1344 333.062 29.9106 331.095 29.9106C329.129 29.9106 327.555 29.1344 326.375 27.97C325.195 26.8057 324.409 25.2533 324.409 23.3127V22.5365C324.409 20.2079 323.622 18.2673 322.049 17.103C320.475 15.5506 318.509 14.7744 316.542 14.7744C314.182 14.7744 312.215 15.5506 311.035 17.103C309.462 18.6554 308.675 20.596 308.675 22.5365V36.5084H331.882C333.849 36.5084 335.422 37.2846 336.602 38.4489C337.782 39.6133 338.569 41.1657 338.569 43.1062C338.569 45.0468 337.782 46.5992 336.602 47.7636C334.635 48.9279 333.062 49.7041 331.095 49.7041Z" fill="#FBFBFB"/>
<path d="M357.619 2.35513C359.206 3.92519 360 5.88778 360 8.24288C360 10.598 359.206 12.5606 357.619 14.1306C356.031 15.7007 354.047 16.4858 351.665 16.4858C349.284 16.4858 347.3 15.7007 345.712 14.1306C344.125 12.5606 343.331 10.598 343.331 8.24288C343.331 5.88778 344.125 3.92519 345.712 2.35513C347.3 0.785058 349.284 0 351.665 0C354.047 0 356.031 0.785058 357.619 2.35513ZM358.412 27.8687C358.412 23.551 356.031 21.196 351.665 21.196C349.681 21.196 348.094 21.981 346.903 23.1585C345.712 24.3361 344.919 25.9061 344.919 27.8687V64.7653C344.919 66.7279 345.712 68.298 346.903 69.4755C348.094 70.6531 349.681 71.4381 351.665 71.4381C353.65 71.4381 355.237 70.6531 356.428 69.4755C357.619 68.298 358.412 66.7279 358.412 64.7653V27.8687Z" fill="#FBFBFB"/>
</g>
<defs>
<filter id="filter0_d_143_4710" x="0" y="0" width="364" height="100.87" filterUnits="userSpaceOnUse" color-interpolation-filters="sRGB">
<feFlood flood-opacity="0" result="BackgroundImageFix"/>
<feColorMatrix in="SourceAlpha" type="matrix" values="0 0 0 0 0 0 0 0 0 0 0 0 0 0 0 0 0 0 127 0" result="hardAlpha"/>
<feOffset dy="4"/>
<feGaussianBlur stdDeviation="2"/>
<feComposite in2="hardAlpha" operator="out"/>
<feColorMatrix type="matrix" values="0 0 0 0 0 0 0 0 0 0 0 0 0 0 0 0 0 0 0.25 0"/>
<feBlend mode="normal" in2="BackgroundImageFix" result="effect1_dropShadow_143_4710"/>
<feBlend mode="normal" in="SourceGraphic" in2="effect1_dropShadow_143_4710" result="shape"/>
</filter>
</defs>
</svg>
