<svg width="38" height="38" viewBox="0 0 38 38" fill="none" xmlns="http://www.w3.org/2000/svg">
<path d="M0 12.7267C0 8.22498 0 5.97413 0.88997 4.26087C1.63994 2.81712 2.81712 1.63994 4.26087 0.88997C5.97413 0 8.22498 0 12.7267 0H25.2162C29.7179 0 31.9687 0 33.682 0.88997C35.1257 1.63994 36.3029 2.81712 37.0529 4.26087C37.9429 5.97413 37.9429 8.22498 37.9429 12.7267V25.2162C37.9429 29.7179 37.9429 31.9687 37.0529 33.682C36.3029 35.1257 35.1257 36.3029 33.682 37.0529C31.9687 37.9429 29.7179 37.9429 25.2162 37.9429H12.7267C8.22498 37.9429 5.97413 37.9429 4.26087 37.0529C2.81712 36.3029 1.63994 35.1257 0.88997 33.682C0 31.9687 0 29.7179 0 25.2162V12.7267Z" fill="url(#paint0_linear_131_51)"/>
<path d="M26.3492 24.2412L27.1924 18.9713H22.1333V15.2824C22.1333 13.8069 22.6603 12.6475 24.979 12.6475H27.4032V7.79927C26.033 7.58848 24.5574 7.37769 23.1873 7.37769C18.866 7.37769 15.8095 10.0126 15.8095 14.7555V18.9713H11.0667V24.2412H15.8095V37.9428C17.9174 37.9428 20.0254 37.9428 22.1333 37.9428V24.2412H26.3492Z" fill="#F4F4F4"/>
<defs>
<linearGradient id="paint0_linear_131_51" x1="18.9714" y1="36.8343" x2="18.9714" y2="0" gradientUnits="userSpaceOnUse">
<stop stop-color="#0062E0"/>
<stop offset="1" stop-color="#19AFFF"/>
</linearGradient>
</defs>
</svg>
