<svg width="38" height="38" viewBox="0 0 38 38" fill="none" xmlns="http://www.w3.org/2000/svg">
<g clip-path="url(#clip0_131_45)">
<path d="M0.050293 12.7267C0.050293 8.22498 0.050293 5.97413 0.940263 4.26087C1.69023 2.81712 2.86741 1.63994 4.31116 0.88997C6.02443 0 8.27527 0 12.777 0H25.2665C29.7682 0 32.019 0 33.7323 0.88997C35.176 1.63994 36.3532 2.81712 37.1032 4.26087C37.9932 5.97413 37.9932 8.22498 37.9932 12.7267V25.2162C37.9932 29.7179 37.9932 31.9687 37.1032 33.682C36.3532 35.1257 35.176 36.3029 33.7323 37.0529C32.019 37.9429 29.7682 37.9429 25.2665 37.9429H12.777C8.27527 37.9429 6.02443 37.9429 4.31116 37.0529C2.86741 36.3029 1.69023 35.1257 0.940263 33.682C0.050293 31.9687 0.050293 29.7179 0.050293 25.2162V12.7267Z" fill="url(#paint0_radial_131_45)"/>
<path d="M0.050293 12.7267C0.050293 8.22498 0.050293 5.97413 0.940263 4.26087C1.69023 2.81712 2.86741 1.63994 4.31116 0.88997C6.02443 0 8.27527 0 12.777 0H25.2665C29.7682 0 32.019 0 33.7323 0.88997C35.176 1.63994 36.3532 2.81712 37.1032 4.26087C37.9932 5.97413 37.9932 8.22498 37.9932 12.7267V25.2162C37.9932 29.7179 37.9932 31.9687 37.1032 33.682C36.3532 35.1257 35.176 36.3029 33.7323 37.0529C32.019 37.9429 29.7682 37.9429 25.2665 37.9429H12.777C8.27527 37.9429 6.02443 37.9429 4.31116 37.0529C2.86741 36.3029 1.69023 35.1257 0.940263 33.682C0.050293 31.9687 0.050293 29.7179 0.050293 25.2162V12.7267Z" fill="url(#paint1_radial_131_45)"/>
<path d="M19.0005 5.17407C15.2535 5.17407 14.7832 5.19046 13.3116 5.25743C11.8428 5.32469 10.8402 5.55724 9.96293 5.89844C9.05549 6.25084 8.28573 6.72226 7.51885 7.48945C6.75139 8.25635 6.27999 9.02613 5.92645 9.93331C5.5844 10.8109 5.35157 11.8138 5.28546 13.2821C5.21964 14.7538 5.20239 15.2243 5.20239 18.9715C5.20239 22.7186 5.21906 23.1874 5.28575 24.6592C5.3533 26.128 5.58583 27.1306 5.92673 28.0079C6.27942 28.9154 6.75082 29.6852 7.51799 30.4521C8.28458 31.2195 9.05434 31.6921 9.9612 32.0445C10.839 32.3857 11.8419 32.6183 13.3104 32.6855C14.7821 32.7525 15.2521 32.7689 18.9988 32.7689C22.7461 32.7689 23.2149 32.7525 24.6866 32.6855C26.1554 32.6183 27.1591 32.3857 28.037 32.0445C28.9441 31.6921 29.7127 31.2195 30.4793 30.4521C31.2468 29.6852 31.7182 28.9154 32.0717 28.0082C32.4109 27.1306 32.6437 26.1277 32.7127 24.6595C32.7788 23.1877 32.7961 22.7186 32.7961 18.9715C32.7961 15.2243 32.7788 14.7541 32.7127 13.2823C32.6437 11.8135 32.4109 10.8109 32.0717 9.9336C31.7182 9.02613 31.2468 8.25635 30.4793 7.48945C29.7119 6.72197 28.9444 6.25056 28.0361 5.89844C27.1566 5.55724 26.1534 5.32469 24.6846 5.25743C23.2129 5.19046 22.7444 5.17407 18.9962 5.17407H19.0005ZM17.7628 7.66048C18.1302 7.6599 18.5401 7.66048 19.0005 7.66048C22.6843 7.66048 23.1209 7.6737 24.5757 7.73981C25.9209 7.80133 26.651 8.02611 27.1373 8.21496C27.7812 8.46504 28.2402 8.76398 28.7228 9.24689C29.2057 9.7298 29.5046 10.1897 29.7553 10.8336C29.9441 11.3194 30.1692 12.0495 30.2304 13.3947C30.2965 14.8492 30.3109 15.2861 30.3109 18.9683C30.3109 22.6505 30.2965 23.0874 30.2304 24.5419C30.1689 25.8871 29.9441 26.6173 29.7553 27.103C29.5052 27.7469 29.2057 28.2054 28.7228 28.688C28.2399 29.1709 27.7814 29.4699 27.1373 29.7199C26.6515 29.9097 25.9209 30.1339 24.5757 30.1954C23.1212 30.2615 22.6843 30.2759 19.0005 30.2759C15.3164 30.2759 14.8798 30.2615 13.4254 30.1954C12.0802 30.1333 11.3501 29.9085 10.8635 29.7197C10.2196 29.4696 9.75971 29.1706 9.27681 28.6877C8.79392 28.2048 8.49499 27.746 8.24434 27.1019C8.05549 26.6161 7.83043 25.886 7.76921 24.5407C7.7031 23.0863 7.68987 22.6493 7.68987 18.9649C7.68987 15.2804 7.7031 14.8458 7.76921 13.3913C7.83072 12.046 8.05549 11.3159 8.24434 10.8296C8.49441 10.1857 8.79392 9.72578 9.27681 9.24287C9.75971 8.75996 10.2196 8.46102 10.8635 8.21036C11.3498 8.02065 12.0802 7.79644 13.4254 7.73464C14.6982 7.67715 15.1914 7.6599 17.7628 7.65703V7.66048ZM26.3652 9.95142C25.4512 9.95142 24.7096 10.6922 24.7096 11.6065C24.7096 12.5206 25.4512 13.2622 26.3652 13.2622C27.2793 13.2622 28.0209 12.5206 28.0209 11.6065C28.0209 10.6925 27.2793 9.95085 26.3652 9.95085V9.95142ZM19.0005 11.8859C15.0876 11.8859 11.9152 15.0585 11.9152 18.9715C11.9152 22.8845 15.0876 26.0556 19.0005 26.0556C22.9134 26.0556 26.0847 22.8845 26.0847 18.9715C26.0847 15.0585 22.9131 11.8859 19.0002 11.8859H19.0005ZM19.0005 14.3723C21.5403 14.3723 23.5995 16.4313 23.5995 18.9715C23.5995 21.5113 21.5403 23.5706 19.0005 23.5706C16.4604 23.5706 14.4015 21.5113 14.4015 18.9715C14.4015 16.4313 16.4604 14.3723 19.0005 14.3723Z" fill="#F4F4F4"/>
</g>
<defs>
<radialGradient id="paint0_radial_131_45" cx="0" cy="0" r="1" gradientUnits="userSpaceOnUse" gradientTransform="translate(10.1289 40.8653) rotate(-90) scale(37.6042 34.9748)">
<stop stop-color="#FFDD55"/>
<stop offset="0.1" stop-color="#FFDD55"/>
<stop offset="0.5" stop-color="#FF543E"/>
<stop offset="1" stop-color="#C837AB"/>
</radialGradient>
<radialGradient id="paint1_radial_131_45" cx="0" cy="0" r="1" gradientUnits="userSpaceOnUse" gradientTransform="translate(-6.30534 2.73334) rotate(78.6806) scale(16.8092 69.2883)">
<stop stop-color="#3771C8"/>
<stop offset="0.128" stop-color="#3771C8"/>
<stop offset="1" stop-color="#6600FF" stop-opacity="0"/>
</radialGradient>
<clipPath id="clip0_131_45">
<rect width="37.9429" height="37.9429" fill="white" transform="translate(0.0285645)"/>
</clipPath>
</defs>
</svg>
