<svg width="49" height="46" fill="none" xmlns="http://www.w3.org/2000/svg"><path d="M24.057 1.12c-.215.418.216.575.378.837 2.104 2.718 3.937 5.489 4.639 8.939 1.294 6.482-.162 12.233-4.64 17.251-.862.994-1.833 1.882-2.858 2.928-.216.209-.108.627.216.627 3.668.261 7.012-.21 10.248-1.882 5.934-3.137 9.278-10.194 7.875-16.415C38.19 5.773 31.932 1.434 24.975.911c-.109 0-.27-.052-.432-.052-.162 0-.378.052-.486.261z" fill="url(#prefix__paint0_linear_150_5128)"/><mask id="prefix__a" style="mask-type:luminance" maskUnits="userSpaceOnUse" x="21" y="0" width="20" height="32"><path d="M24.057 1.12c-.215.418.216.575.378.837 2.104 2.718 3.937 5.489 4.639 8.939 1.294 6.482-.162 12.233-4.64 17.251-.862.994-1.833 1.882-2.858 2.928-.216.209-.108.627.216.627 3.668.261 7.012-.21 10.248-1.882 5.934-3.137 9.278-10.194 7.875-16.415C38.19 5.773 31.932 1.434 24.975.911c-.109 0-.27-.052-.432-.052-.162 0-.378.052-.486.261z" fill="#fff"/></mask><g mask="url(#prefix__a)"><path d="M25.567.754h-4.53v31.21h4.53V.753z" fill="url(#prefix__paint1_linear_150_5128)"/></g><mask id="prefix__b" style="mask-type:luminance" maskUnits="userSpaceOnUse" x="21" y="0" width="20" height="32"><path d="M24.057 1.12c-.215.418.216.575.378.837 2.104 2.718 3.937 5.489 4.639 8.939 1.294 6.482-.162 12.233-4.64 17.251-.862.994-1.833 1.882-2.858 2.928-.216.209-.108.627.216.627 3.668.261 7.012-.21 10.248-1.882 5.934-3.137 9.278-10.194 7.875-16.415C38.19 5.773 31.932 1.434 24.975.911c-.109 0-.27-.052-.432-.052-.162 0-.378.052-.486.261z" fill="#fff"/></mask><g mask="url(#prefix__b)"><path d="M30.099.754h-4.531v31.21h4.53V.753z" fill="url(#prefix__paint2_linear_150_5128)"/></g><mask id="prefix__c" style="mask-type:luminance" maskUnits="userSpaceOnUse" x="21" y="0" width="20" height="32"><path d="M24.057 1.12c-.215.418.216.575.378.837 2.104 2.718 3.937 5.489 4.639 8.939 1.294 6.482-.162 12.233-4.64 17.251-.862.994-1.833 1.882-2.858 2.928-.216.209-.108.627.216.627 3.668.261 7.012-.21 10.248-1.882 5.934-3.137 9.278-10.194 7.875-16.415C38.19 5.773 31.932 1.434 24.975.911c-.109 0-.27-.052-.432-.052-.162 0-.378.052-.486.261z" fill="#fff"/></mask><g mask="url(#prefix__c)"><path d="M30.53.754h-.432v31.21h.432V.753z" fill="url(#prefix__paint3_linear_150_5128)"/></g><mask id="prefix__d" style="mask-type:luminance" maskUnits="userSpaceOnUse" x="21" y="0" width="20" height="32"><path d="M24.057 1.12c-.215.418.216.575.378.837 2.104 2.718 3.937 5.489 4.639 8.939 1.294 6.482-.162 12.233-4.64 17.251-.862.994-1.833 1.882-2.858 2.928-.216.209-.108.627.216.627 3.668.261 7.012-.21 10.248-1.882 5.934-3.137 9.278-10.194 7.875-16.415C38.19 5.773 31.932 1.434 24.975.911c-.109 0-.27-.052-.432-.052-.162 0-.378.052-.486.261z" fill="#fff"/></mask><g mask="url(#prefix__d)"><path d="M30.961.754h-.431v31.21h.431V.753z" fill="url(#prefix__paint4_linear_150_5128)"/></g><mask id="prefix__e" style="mask-type:luminance" maskUnits="userSpaceOnUse" x="21" y="0" width="20" height="32"><path d="M24.057 1.12c-.215.418.216.575.378.837 2.104 2.718 3.937 5.489 4.639 8.939 1.294 6.482-.162 12.233-4.64 17.251-.862.994-1.833 1.882-2.858 2.928-.216.209-.108.627.216.627 3.668.261 7.012-.21 10.248-1.882 5.934-3.137 9.278-10.194 7.875-16.415C38.19 5.773 31.932 1.434 24.975.911c-.109 0-.27-.052-.432-.052-.162 0-.378.052-.486.261z" fill="#fff"/></mask><g mask="url(#prefix__e)"><path d="M31.447.754h-.432v31.21h.432V.753z" fill="url(#prefix__paint5_linear_150_5128)"/></g><mask id="prefix__f" style="mask-type:luminance" maskUnits="userSpaceOnUse" x="21" y="0" width="20" height="32"><path d="M24.057 1.12c-.215.418.216.575.378.837 2.104 2.718 3.937 5.489 4.639 8.939 1.294 6.482-.162 12.233-4.64 17.251-.862.994-1.833 1.882-2.858 2.928-.216.209-.108.627.216.627 3.668.261 7.012-.21 10.248-1.882 5.934-3.137 9.278-10.194 7.875-16.415C38.19 5.773 31.932 1.434 24.975.911c-.109 0-.27-.052-.432-.052-.162 0-.378.052-.486.261z" fill="#fff"/></mask><g mask="url(#prefix__f)"><path d="M31.878.754h-.431v31.21h.431V.753z" fill="url(#prefix__paint6_linear_150_5128)"/></g><mask id="prefix__g" style="mask-type:luminance" maskUnits="userSpaceOnUse" x="21" y="0" width="20" height="32"><path d="M24.057 1.12c-.215.418.216.575.378.837 2.104 2.718 3.937 5.489 4.639 8.939 1.294 6.482-.162 12.233-4.64 17.251-.862.994-1.833 1.882-2.858 2.928-.216.209-.108.627.216.627 3.668.261 7.012-.21 10.248-1.882 5.934-3.137 9.278-10.194 7.875-16.415C38.19 5.773 31.932 1.434 24.975.911c-.109 0-.27-.052-.432-.052-.162 0-.378.052-.486.261z" fill="#fff"/></mask><g mask="url(#prefix__g)"><path d="M32.31.754h-.432v31.21h.432V.753z" fill="url(#prefix__paint7_linear_150_5128)"/></g><mask id="prefix__h" style="mask-type:luminance" maskUnits="userSpaceOnUse" x="21" y="0" width="20" height="32"><path d="M24.057 1.12c-.215.418.216.575.378.837 2.104 2.718 3.937 5.489 4.639 8.939 1.294 6.482-.162 12.233-4.64 17.251-.862.994-1.833 1.882-2.858 2.928-.216.209-.108.627.216.627 3.668.261 7.012-.21 10.248-1.882 5.934-3.137 9.278-10.194 7.875-16.415C38.19 5.773 31.932 1.434 24.975.911c-.109 0-.27-.052-.432-.052-.162 0-.378.052-.486.261z" fill="#fff"/></mask><g mask="url(#prefix__h)"><path d="M32.795.754h-.431v31.21h.431V.753z" fill="url(#prefix__paint8_linear_150_5128)"/></g><mask id="prefix__i" style="mask-type:luminance" maskUnits="userSpaceOnUse" x="21" y="0" width="20" height="32"><path d="M24.057 1.12c-.215.418.216.575.378.837 2.104 2.718 3.937 5.489 4.639 8.939 1.294 6.482-.162 12.233-4.64 17.251-.862.994-1.833 1.882-2.858 2.928-.216.209-.108.627.216.627 3.668.261 7.012-.21 10.248-1.882 5.934-3.137 9.278-10.194 7.875-16.415C38.19 5.773 31.932 1.434 24.975.911c-.109 0-.27-.052-.432-.052-.162 0-.378.052-.486.261z" fill="#fff"/></mask><g mask="url(#prefix__i)"><path d="M33.227.754h-.432v31.21h.432V.753z" fill="url(#prefix__paint9_linear_150_5128)"/></g><mask id="prefix__j" style="mask-type:luminance" maskUnits="userSpaceOnUse" x="21" y="0" width="20" height="32"><path d="M24.057 1.12c-.215.418.216.575.378.837 2.104 2.718 3.937 5.489 4.639 8.939 1.294 6.482-.162 12.233-4.64 17.251-.862.994-1.833 1.882-2.858 2.928-.216.209-.108.627.216.627 3.668.261 7.012-.21 10.248-1.882 5.934-3.137 9.278-10.194 7.875-16.415C38.19 5.773 31.932 1.434 24.975.911c-.109 0-.27-.052-.432-.052-.162 0-.378.052-.486.261z" fill="#fff"/></mask><g mask="url(#prefix__j)"><path d="M33.712.754h-.431v31.21h.431V.753z" fill="url(#prefix__paint10_linear_150_5128)"/></g><mask id="prefix__k" style="mask-type:luminance" maskUnits="userSpaceOnUse" x="21" y="0" width="20" height="32"><path d="M24.057 1.12c-.215.418.216.575.378.837 2.104 2.718 3.937 5.489 4.639 8.939 1.294 6.482-.162 12.233-4.64 17.251-.862.994-1.833 1.882-2.858 2.928-.216.209-.108.627.216.627 3.668.261 7.012-.21 10.248-1.882 5.934-3.137 9.278-10.194 7.875-16.415C38.19 5.773 31.932 1.434 24.975.911c-.109 0-.27-.052-.432-.052-.162 0-.378.052-.486.261z" fill="#fff"/></mask><g mask="url(#prefix__k)"><path d="M34.144.754h-.432v31.21h.432V.753z" fill="url(#prefix__paint11_linear_150_5128)"/></g><mask id="prefix__l" style="mask-type:luminance" maskUnits="userSpaceOnUse" x="21" y="0" width="20" height="32"><path d="M24.057 1.12c-.215.418.216.575.378.837 2.104 2.718 3.937 5.489 4.639 8.939 1.294 6.482-.162 12.233-4.64 17.251-.862.994-1.833 1.882-2.858 2.928-.216.209-.108.627.216.627 3.668.261 7.012-.21 10.248-1.882 5.934-3.137 9.278-10.194 7.875-16.415C38.19 5.773 31.932 1.434 24.975.911c-.109 0-.27-.052-.432-.052-.162 0-.378.052-.486.261z" fill="#fff"/></mask><g mask="url(#prefix__l)"><path d="M34.575.754h-.431v31.21h.431V.753z" fill="url(#prefix__paint12_linear_150_5128)"/></g><mask id="prefix__m" style="mask-type:luminance" maskUnits="userSpaceOnUse" x="21" y="0" width="20" height="32"><path d="M24.057 1.12c-.215.418.216.575.378.837 2.104 2.718 3.937 5.489 4.639 8.939 1.294 6.482-.162 12.233-4.64 17.251-.862.994-1.833 1.882-2.858 2.928-.216.209-.108.627.216.627 3.668.261 7.012-.21 10.248-1.882 5.934-3.137 9.278-10.194 7.875-16.415C38.19 5.773 31.932 1.434 24.975.911c-.109 0-.27-.052-.432-.052-.162 0-.378.052-.486.261z" fill="#fff"/></mask><g mask="url(#prefix__m)"><path d="M35.061.754h-.431v31.21h.431V.753z" fill="url(#prefix__paint13_linear_150_5128)"/></g><mask id="prefix__n" style="mask-type:luminance" maskUnits="userSpaceOnUse" x="21" y="0" width="20" height="32"><path d="M24.057 1.12c-.215.418.216.575.378.837 2.104 2.718 3.937 5.489 4.639 8.939 1.294 6.482-.162 12.233-4.64 17.251-.862.994-1.833 1.882-2.858 2.928-.216.209-.108.627.216.627 3.668.261 7.012-.21 10.248-1.882 5.934-3.137 9.278-10.194 7.875-16.415C38.19 5.773 31.932 1.434 24.975.911c-.109 0-.27-.052-.432-.052-.162 0-.378.052-.486.261z" fill="#fff"/></mask><g mask="url(#prefix__n)"><path d="M35.492.754h-.431v31.21h.431V.753z" fill="url(#prefix__paint14_linear_150_5128)"/></g><mask id="prefix__o" style="mask-type:luminance" maskUnits="userSpaceOnUse" x="21" y="0" width="20" height="32"><path d="M24.057 1.12c-.215.418.216.575.378.837 2.104 2.718 3.937 5.489 4.639 8.939 1.294 6.482-.162 12.233-4.64 17.251-.862.994-1.833 1.882-2.858 2.928-.216.209-.108.627.216.627 3.668.261 7.012-.21 10.248-1.882 5.934-3.137 9.278-10.194 7.875-16.415C38.19 5.773 31.932 1.434 24.975.911c-.109 0-.27-.052-.432-.052-.162 0-.378.052-.486.261z" fill="#fff"/></mask><g mask="url(#prefix__o)"><path d="M35.977.754h-.431v31.21h.431V.753z" fill="url(#prefix__paint15_linear_150_5128)"/></g><mask id="prefix__p" style="mask-type:luminance" maskUnits="userSpaceOnUse" x="21" y="0" width="20" height="32"><path d="M24.057 1.12c-.215.418.216.575.378.837 2.104 2.718 3.937 5.489 4.639 8.939 1.294 6.482-.162 12.233-4.64 17.251-.862.994-1.833 1.882-2.858 2.928-.216.209-.108.627.216.627 3.668.261 7.012-.21 10.248-1.882 5.934-3.137 9.278-10.194 7.875-16.415C38.19 5.773 31.932 1.434 24.975.911c-.109 0-.27-.052-.432-.052-.162 0-.378.052-.486.261z" fill="#fff"/></mask><g mask="url(#prefix__p)"><path d="M36.41.754h-.432v31.21h.431V.753z" fill="url(#prefix__paint16_linear_150_5128)"/></g><mask id="prefix__q" style="mask-type:luminance" maskUnits="userSpaceOnUse" x="21" y="0" width="20" height="32"><path d="M24.057 1.12c-.215.418.216.575.378.837 2.104 2.718 3.937 5.489 4.639 8.939 1.294 6.482-.162 12.233-4.64 17.251-.862.994-1.833 1.882-2.858 2.928-.216.209-.108.627.216.627 3.668.261 7.012-.21 10.248-1.882 5.934-3.137 9.278-10.194 7.875-16.415C38.19 5.773 31.932 1.434 24.975.911c-.109 0-.27-.052-.432-.052-.162 0-.378.052-.486.261z" fill="#fff"/></mask><g mask="url(#prefix__q)"><path d="M36.84.754h-.43v31.21h.43V.753z" fill="url(#prefix__paint17_linear_150_5128)"/></g><mask id="prefix__r" style="mask-type:luminance" maskUnits="userSpaceOnUse" x="21" y="0" width="20" height="32"><path d="M24.057 1.12c-.215.418.216.575.378.837 2.104 2.718 3.937 5.489 4.639 8.939 1.294 6.482-.162 12.233-4.64 17.251-.862.994-1.833 1.882-2.858 2.928-.216.209-.108.627.216.627 3.668.261 7.012-.21 10.248-1.882 5.934-3.137 9.278-10.194 7.875-16.415C38.19 5.773 31.932 1.434 24.975.911c-.109 0-.27-.052-.432-.052-.162 0-.378.052-.486.261z" fill="#fff"/></mask><g mask="url(#prefix__r)"><path d="M37.326.754h-.431v31.21h.431V.753z" fill="url(#prefix__paint18_linear_150_5128)"/></g><mask id="prefix__s" style="mask-type:luminance" maskUnits="userSpaceOnUse" x="21" y="0" width="20" height="32"><path d="M24.057 1.12c-.215.418.216.575.378.837 2.104 2.718 3.937 5.489 4.639 8.939 1.294 6.482-.162 12.233-4.64 17.251-.862.994-1.833 1.882-2.858 2.928-.216.209-.108.627.216.627 3.668.261 7.012-.21 10.248-1.882 5.934-3.137 9.278-10.194 7.875-16.415C38.19 5.773 31.932 1.434 24.975.911c-.109 0-.27-.052-.432-.052-.162 0-.378.052-.486.261z" fill="#fff"/></mask><g mask="url(#prefix__s)"><path d="M37.758.754h-.432v31.21h.432V.753z" fill="url(#prefix__paint19_linear_150_5128)"/></g><mask id="prefix__t" style="mask-type:luminance" maskUnits="userSpaceOnUse" x="21" y="0" width="20" height="32"><path d="M24.057 1.12c-.215.418.216.575.378.837 2.104 2.718 3.937 5.489 4.639 8.939 1.294 6.482-.162 12.233-4.64 17.251-.862.994-1.833 1.882-2.858 2.928-.216.209-.108.627.216.627 3.668.261 7.012-.21 10.248-1.882 5.934-3.137 9.278-10.194 7.875-16.415C38.19 5.773 31.932 1.434 24.975.911c-.109 0-.27-.052-.432-.052-.162 0-.378.052-.486.261z" fill="#fff"/></mask><g mask="url(#prefix__t)"><path d="M38.19.754h-.432v31.21h.431V.753z" fill="url(#prefix__paint20_linear_150_5128)"/></g><mask id="prefix__u" style="mask-type:luminance" maskUnits="userSpaceOnUse" x="21" y="0" width="20" height="32"><path d="M24.057 1.12c-.215.418.216.575.378.837 2.104 2.718 3.937 5.489 4.639 8.939 1.294 6.482-.162 12.233-4.64 17.251-.862.994-1.833 1.882-2.858 2.928-.216.209-.108.627.216.627 3.668.261 7.012-.21 10.248-1.882 5.934-3.137 9.278-10.194 7.875-16.415C38.19 5.773 31.932 1.434 24.975.911c-.109 0-.27-.052-.432-.052-.162 0-.378.052-.486.261z" fill="#fff"/></mask><g mask="url(#prefix__u)"><path d="M38.674.754h-.431v31.21h.431V.753z" fill="url(#prefix__paint21_linear_150_5128)"/></g><mask id="prefix__v" style="mask-type:luminance" maskUnits="userSpaceOnUse" x="21" y="0" width="20" height="32"><path d="M24.057 1.12c-.215.418.216.575.378.837 2.104 2.718 3.937 5.489 4.639 8.939 1.294 6.482-.162 12.233-4.64 17.251-.862.994-1.833 1.882-2.858 2.928-.216.209-.108.627.216.627 3.668.261 7.012-.21 10.248-1.882 5.934-3.137 9.278-10.194 7.875-16.415C38.19 5.773 31.932 1.434 24.975.911c-.109 0-.27-.052-.432-.052-.162 0-.378.052-.486.261z" fill="#fff"/></mask><g mask="url(#prefix__v)"><path d="M39.106.754h-.431v31.21h.431V.753z" fill="url(#prefix__paint22_linear_150_5128)"/></g><mask id="prefix__w" style="mask-type:luminance" maskUnits="userSpaceOnUse" x="21" y="0" width="20" height="32"><path d="M24.057 1.12c-.215.418.216.575.378.837 2.104 2.718 3.937 5.489 4.639 8.939 1.294 6.482-.162 12.233-4.64 17.251-.862.994-1.833 1.882-2.858 2.928-.216.209-.108.627.216.627 3.668.261 7.012-.21 10.248-1.882 5.934-3.137 9.278-10.194 7.875-16.415C38.19 5.773 31.932 1.434 24.975.911c-.109 0-.27-.052-.432-.052-.162 0-.378.052-.486.261z" fill="#fff"/></mask><g mask="url(#prefix__w)"><path d="M39.591.754h-.431v31.21h.431V.753z" fill="url(#prefix__paint23_linear_150_5128)"/></g><mask id="prefix__x" style="mask-type:luminance" maskUnits="userSpaceOnUse" x="21" y="0" width="20" height="32"><path d="M24.057 1.12c-.215.418.216.575.378.837 2.104 2.718 3.937 5.489 4.639 8.939 1.294 6.482-.162 12.233-4.64 17.251-.862.994-1.833 1.882-2.858 2.928-.216.209-.108.627.216.627 3.668.261 7.012-.21 10.248-1.882 5.934-3.137 9.278-10.194 7.875-16.415C38.19 5.773 31.932 1.434 24.975.911c-.109 0-.27-.052-.432-.052-.162 0-.378.052-.486.261z" fill="#fff"/></mask><g mask="url(#prefix__x)"><path d="M40.023.754h-.431v31.21h.431V.753z" fill="url(#prefix__paint24_linear_150_5128)"/></g><mask id="prefix__y" style="mask-type:luminance" maskUnits="userSpaceOnUse" x="21" y="0" width="20" height="32"><path d="M24.057 1.12c-.215.418.216.575.378.837 2.104 2.718 3.937 5.489 4.639 8.939 1.294 6.482-.162 12.233-4.64 17.251-.862.994-1.833 1.882-2.858 2.928-.216.209-.108.627.216.627 3.668.261 7.012-.21 10.248-1.882 5.934-3.137 9.278-10.194 7.875-16.415C38.19 5.773 31.932 1.434 24.975.911c-.109 0-.27-.052-.432-.052-.162 0-.378.052-.486.261z" fill="#fff"/></mask><g mask="url(#prefix__y)"><path d="M41.318.754h-1.295v31.21h1.295V.753z" fill="url(#prefix__paint25_linear_150_5128)"/></g><path d="M17.639 2.218c-3.776 1.725-6.473 4.444-8.091 8.207-.54 1.15-.378 1.778 1.025 1.987 7.066 1.255 11.165 8.469 9.115 14.167-.162.418-.431.94.108 1.255.486.261.917-.157 1.187-.523 3.182-3.503 5.394-7.476 5.286-12.337-.27-4.862-1.942-9.097-5.772-12.39-.54-.47-1.078-.68-1.618-.68-.377 0-.755.105-1.24.314z" fill="url(#prefix__paint26_linear_150_5128)"/><mask id="prefix__z" style="mask-type:luminance" maskUnits="userSpaceOnUse" x="9" y="1" width="18" height="27"><path d="M17.639 2.218c-3.776 1.725-6.473 4.444-8.091 8.207-.54 1.15-.378 1.778 1.025 1.987 7.066 1.255 11.165 8.469 9.115 14.167-.162.418-.431.94.108 1.255.486.261.917-.157 1.187-.523 3.182-3.503 5.394-7.476 5.286-12.337-.27-4.862-1.942-9.097-5.772-12.39-.54-.47-1.078-.68-1.618-.68-.377 0-.755.105-1.24.314z" fill="#fff"/></mask><mask id="prefix__A" style="mask-type:luminance" maskUnits="userSpaceOnUse" x="9" y="1" width="18" height="27"><path d="M17.639 2.218c-3.776 1.725-6.473 4.444-8.091 8.207-.54 1.15-.378 1.778 1.025 1.987 7.066 1.255 11.165 8.469 9.115 14.167-.162.418-.431.94.108 1.255.486.261.917-.157 1.187-.523 3.182-3.503 5.394-7.476 5.286-12.337-.27-4.862-1.942-9.097-5.772-12.39-.54-.47-1.078-.68-1.618-.68-.377 0-.755.105-1.24.314z" fill="#fff"/></mask><g mask="url(#prefix__A)"><path d="M13.323 1.695H9.278v26.4h4.045v-26.4z" fill="url(#prefix__paint27_linear_150_5128)"/></g><mask id="prefix__B" style="mask-type:luminance" maskUnits="userSpaceOnUse" x="9" y="1" width="18" height="27"><path d="M17.639 2.218c-3.776 1.725-6.473 4.444-8.091 8.207-.54 1.15-.378 1.778 1.025 1.987 7.066 1.255 11.165 8.469 9.115 14.167-.162.418-.431.94.108 1.255.486.261.917-.157 1.187-.523 3.182-3.503 5.394-7.476 5.286-12.337-.27-4.862-1.942-9.097-5.772-12.39-.54-.47-1.078-.68-1.618-.68-.377 0-.755.105-1.24.314z" fill="#fff"/></mask><g mask="url(#prefix__B)"><path d="M17.315 1.695h-4.046v26.4h4.046v-26.4z" fill="url(#prefix__paint28_linear_150_5128)"/></g><mask id="prefix__C" style="mask-type:luminance" maskUnits="userSpaceOnUse" x="9" y="1" width="18" height="27"><path d="M17.639 2.218c-3.776 1.725-6.473 4.444-8.091 8.207-.54 1.15-.378 1.778 1.025 1.987 7.066 1.255 11.165 8.469 9.115 14.167-.162.418-.431.94.108 1.255.486.261.917-.157 1.187-.523 3.182-3.503 5.394-7.476 5.286-12.337-.27-4.862-1.942-9.097-5.772-12.39-.54-.47-1.078-.68-1.618-.68-.377 0-.755.105-1.24.314z" fill="#fff"/></mask><g mask="url(#prefix__C)"><path d="M17.692 1.695h-.377v26.4h.377v-26.4z" fill="url(#prefix__paint29_linear_150_5128)"/></g><mask id="prefix__D" style="mask-type:luminance" maskUnits="userSpaceOnUse" x="9" y="1" width="18" height="27"><path d="M17.639 2.218c-3.776 1.725-6.473 4.444-8.091 8.207-.54 1.15-.378 1.778 1.025 1.987 7.066 1.255 11.165 8.469 9.115 14.167-.162.418-.431.94.108 1.255.486.261.917-.157 1.187-.523 3.182-3.503 5.394-7.476 5.286-12.337-.27-4.862-1.942-9.097-5.772-12.39-.54-.47-1.078-.68-1.618-.68-.377 0-.755.105-1.24.314z" fill="#fff"/></mask><g mask="url(#prefix__D)"><path d="M18.07 1.695h-.378v26.4h.378v-26.4z" fill="url(#prefix__paint30_linear_150_5128)"/></g><mask id="prefix__E" style="mask-type:luminance" maskUnits="userSpaceOnUse" x="9" y="1" width="18" height="27"><path d="M17.639 2.218c-3.776 1.725-6.473 4.444-8.091 8.207-.54 1.15-.378 1.778 1.025 1.987 7.066 1.255 11.165 8.469 9.115 14.167-.162.418-.431.94.108 1.255.486.261.917-.157 1.187-.523 3.182-3.503 5.394-7.476 5.286-12.337-.27-4.862-1.942-9.097-5.772-12.39-.54-.47-1.078-.68-1.618-.68-.377 0-.755.105-1.24.314z" fill="#fff"/></mask><g mask="url(#prefix__E)"><path d="M18.502 1.695h-.378v26.4h.378v-26.4z" fill="url(#prefix__paint31_linear_150_5128)"/></g><mask id="prefix__F" style="mask-type:luminance" maskUnits="userSpaceOnUse" x="9" y="1" width="18" height="27"><path d="M17.639 2.218c-3.776 1.725-6.473 4.444-8.091 8.207-.54 1.15-.378 1.778 1.025 1.987 7.066 1.255 11.165 8.469 9.115 14.167-.162.418-.431.94.108 1.255.486.261.917-.157 1.187-.523 3.182-3.503 5.394-7.476 5.286-12.337-.27-4.862-1.942-9.097-5.772-12.39-.54-.47-1.078-.68-1.618-.68-.377 0-.755.105-1.24.314z" fill="#fff"/></mask><g mask="url(#prefix__F)"><path d="M18.88 1.695h-.378v26.4h.377v-26.4z" fill="url(#prefix__paint32_linear_150_5128)"/></g><mask id="prefix__G" style="mask-type:luminance" maskUnits="userSpaceOnUse" x="9" y="1" width="18" height="27"><path d="M17.639 2.218c-3.776 1.725-6.473 4.444-8.091 8.207-.54 1.15-.378 1.778 1.025 1.987 7.066 1.255 11.165 8.469 9.115 14.167-.162.418-.431.94.108 1.255.486.261.917-.157 1.187-.523 3.182-3.503 5.394-7.476 5.286-12.337-.27-4.862-1.942-9.097-5.772-12.39-.54-.47-1.078-.68-1.618-.68-.377 0-.755.105-1.24.314z" fill="#fff"/></mask><g mask="url(#prefix__G)"><path d="M19.31 1.695h-.377v26.4h.378v-26.4z" fill="url(#prefix__paint33_linear_150_5128)"/></g><mask id="prefix__H" style="mask-type:luminance" maskUnits="userSpaceOnUse" x="9" y="1" width="18" height="27"><path d="M17.639 2.218c-3.776 1.725-6.473 4.444-8.091 8.207-.54 1.15-.378 1.778 1.025 1.987 7.066 1.255 11.165 8.469 9.115 14.167-.162.418-.431.94.108 1.255.486.261.917-.157 1.187-.523 3.182-3.503 5.394-7.476 5.286-12.337-.27-4.862-1.942-9.097-5.772-12.39-.54-.47-1.078-.68-1.618-.68-.377 0-.755.105-1.24.314z" fill="#fff"/></mask><g mask="url(#prefix__H)"><path d="M19.688 1.695h-.377v26.4h.377v-26.4z" fill="url(#prefix__paint34_linear_150_5128)"/></g><mask id="prefix__I" style="mask-type:luminance" maskUnits="userSpaceOnUse" x="9" y="1" width="18" height="27"><path d="M17.639 2.218c-3.776 1.725-6.473 4.444-8.091 8.207-.54 1.15-.378 1.778 1.025 1.987 7.066 1.255 11.165 8.469 9.115 14.167-.162.418-.431.94.108 1.255.486.261.917-.157 1.187-.523 3.182-3.503 5.394-7.476 5.286-12.337-.27-4.862-1.942-9.097-5.772-12.39-.54-.47-1.078-.68-1.618-.68-.377 0-.755.105-1.24.314z" fill="#fff"/></mask><g mask="url(#prefix__I)"><path d="M20.066 1.695h-.378v26.4h.378v-26.4z" fill="url(#prefix__paint35_linear_150_5128)"/></g><mask id="prefix__J" style="mask-type:luminance" maskUnits="userSpaceOnUse" x="9" y="1" width="18" height="27"><path d="M17.639 2.218c-3.776 1.725-6.473 4.444-8.091 8.207-.54 1.15-.378 1.778 1.025 1.987 7.066 1.255 11.165 8.469 9.115 14.167-.162.418-.431.94.108 1.255.486.261.917-.157 1.187-.523 3.182-3.503 5.394-7.476 5.286-12.337-.27-4.862-1.942-9.097-5.772-12.39-.54-.47-1.078-.68-1.618-.68-.377 0-.755.105-1.24.314z" fill="#fff"/></mask><g mask="url(#prefix__J)"><path d="M20.497 1.695h-.377v26.4h.377v-26.4z" fill="url(#prefix__paint36_linear_150_5128)"/></g><mask id="prefix__K" style="mask-type:luminance" maskUnits="userSpaceOnUse" x="9" y="1" width="18" height="27"><path d="M17.639 2.218c-3.776 1.725-6.473 4.444-8.091 8.207-.54 1.15-.378 1.778 1.025 1.987 7.066 1.255 11.165 8.469 9.115 14.167-.162.418-.431.94.108 1.255.486.261.917-.157 1.187-.523 3.182-3.503 5.394-7.476 5.286-12.337-.27-4.862-1.942-9.097-5.772-12.39-.54-.47-1.078-.68-1.618-.68-.377 0-.755.105-1.24.314z" fill="#fff"/></mask><g mask="url(#prefix__K)"><path d="M20.875 1.695h-.378v26.4h.378v-26.4z" fill="url(#prefix__paint37_linear_150_5128)"/></g><mask id="prefix__L" style="mask-type:luminance" maskUnits="userSpaceOnUse" x="9" y="1" width="18" height="27"><path d="M17.639 2.218c-3.776 1.725-6.473 4.444-8.091 8.207-.54 1.15-.378 1.778 1.025 1.987 7.066 1.255 11.165 8.469 9.115 14.167-.162.418-.431.94.108 1.255.486.261.917-.157 1.187-.523 3.182-3.503 5.394-7.476 5.286-12.337-.27-4.862-1.942-9.097-5.772-12.39-.54-.47-1.078-.68-1.618-.68-.377 0-.755.105-1.24.314z" fill="#fff"/></mask><g mask="url(#prefix__L)"><path d="M21.306 1.695h-.377v26.4h.377v-26.4z" fill="url(#prefix__paint38_linear_150_5128)"/></g><mask id="prefix__M" style="mask-type:luminance" maskUnits="userSpaceOnUse" x="9" y="1" width="18" height="27"><path d="M17.639 2.218c-3.776 1.725-6.473 4.444-8.091 8.207-.54 1.15-.378 1.778 1.025 1.987 7.066 1.255 11.165 8.469 9.115 14.167-.162.418-.431.94.108 1.255.486.261.917-.157 1.187-.523 3.182-3.503 5.394-7.476 5.286-12.337-.27-4.862-1.942-9.097-5.772-12.39-.54-.47-1.078-.68-1.618-.68-.377 0-.755.105-1.24.314z" fill="#fff"/></mask><g mask="url(#prefix__M)"><path d="M21.684 1.695h-.377v26.4h.377v-26.4z" fill="url(#prefix__paint39_linear_150_5128)"/></g><mask id="prefix__N" style="mask-type:luminance" maskUnits="userSpaceOnUse" x="9" y="1" width="18" height="27"><path d="M17.639 2.218c-3.776 1.725-6.473 4.444-8.091 8.207-.54 1.15-.378 1.778 1.025 1.987 7.066 1.255 11.165 8.469 9.115 14.167-.162.418-.431.94.108 1.255.486.261.917-.157 1.187-.523 3.182-3.503 5.394-7.476 5.286-12.337-.27-4.862-1.942-9.097-5.772-12.39-.54-.47-1.078-.68-1.618-.68-.377 0-.755.105-1.24.314z" fill="#fff"/></mask><g mask="url(#prefix__N)"><path d="M22.115 1.695h-.377v26.4h.377v-26.4z" fill="url(#prefix__paint40_linear_150_5128)"/></g><mask id="prefix__O" style="mask-type:luminance" maskUnits="userSpaceOnUse" x="9" y="1" width="18" height="27"><path d="M17.639 2.218c-3.776 1.725-6.473 4.444-8.091 8.207-.54 1.15-.378 1.778 1.025 1.987 7.066 1.255 11.165 8.469 9.115 14.167-.162.418-.431.94.108 1.255.486.261.917-.157 1.187-.523 3.182-3.503 5.394-7.476 5.286-12.337-.27-4.862-1.942-9.097-5.772-12.39-.54-.47-1.078-.68-1.618-.68-.377 0-.755.105-1.24.314z" fill="#fff"/></mask><g mask="url(#prefix__O)"><path d="M22.493 1.695h-.377v26.4h.377v-26.4z" fill="url(#prefix__paint41_linear_150_5128)"/></g><mask id="prefix__P" style="mask-type:luminance" maskUnits="userSpaceOnUse" x="9" y="1" width="18" height="27"><path d="M17.639 2.218c-3.776 1.725-6.473 4.444-8.091 8.207-.54 1.15-.378 1.778 1.025 1.987 7.066 1.255 11.165 8.469 9.115 14.167-.162.418-.431.94.108 1.255.486.261.917-.157 1.187-.523 3.182-3.503 5.394-7.476 5.286-12.337-.27-4.862-1.942-9.097-5.772-12.39-.54-.47-1.078-.68-1.618-.68-.377 0-.755.105-1.24.314z" fill="#fff"/></mask><g mask="url(#prefix__P)"><path d="M22.87 1.695h-.377v26.4h.378v-26.4z" fill="url(#prefix__paint42_linear_150_5128)"/></g><mask id="prefix__Q" style="mask-type:luminance" maskUnits="userSpaceOnUse" x="9" y="1" width="18" height="27"><path d="M17.639 2.218c-3.776 1.725-6.473 4.444-8.091 8.207-.54 1.15-.378 1.778 1.025 1.987 7.066 1.255 11.165 8.469 9.115 14.167-.162.418-.431.94.108 1.255.486.261.917-.157 1.187-.523 3.182-3.503 5.394-7.476 5.286-12.337-.27-4.862-1.942-9.097-5.772-12.39-.54-.47-1.078-.68-1.618-.68-.377 0-.755.105-1.24.314z" fill="#fff"/></mask><g mask="url(#prefix__Q)"><path d="M23.302 1.695h-.377v26.4h.377v-26.4z" fill="url(#prefix__paint43_linear_150_5128)"/></g><mask id="prefix__R" style="mask-type:luminance" maskUnits="userSpaceOnUse" x="9" y="1" width="18" height="27"><path d="M17.639 2.218c-3.776 1.725-6.473 4.444-8.091 8.207-.54 1.15-.378 1.778 1.025 1.987 7.066 1.255 11.165 8.469 9.115 14.167-.162.418-.431.94.108 1.255.486.261.917-.157 1.187-.523 3.182-3.503 5.394-7.476 5.286-12.337-.27-4.862-1.942-9.097-5.772-12.39-.54-.47-1.078-.68-1.618-.68-.377 0-.755.105-1.24.314z" fill="#fff"/></mask><g mask="url(#prefix__R)"><path d="M23.68 1.695h-.378v26.4h.378v-26.4z" fill="url(#prefix__paint44_linear_150_5128)"/></g><mask id="prefix__S" style="mask-type:luminance" maskUnits="userSpaceOnUse" x="9" y="1" width="18" height="27"><path d="M17.639 2.218c-3.776 1.725-6.473 4.444-8.091 8.207-.54 1.15-.378 1.778 1.025 1.987 7.066 1.255 11.165 8.469 9.115 14.167-.162.418-.431.94.108 1.255.486.261.917-.157 1.187-.523 3.182-3.503 5.394-7.476 5.286-12.337-.27-4.862-1.942-9.097-5.772-12.39-.54-.47-1.078-.68-1.618-.68-.377 0-.755.105-1.24.314z" fill="#fff"/></mask><g mask="url(#prefix__S)"><path d="M24.111 1.695h-.377v26.4h.377v-26.4z" fill="url(#prefix__paint45_linear_150_5128)"/></g><mask id="prefix__T" style="mask-type:luminance" maskUnits="userSpaceOnUse" x="9" y="1" width="18" height="27"><path d="M17.639 2.218c-3.776 1.725-6.473 4.444-8.091 8.207-.54 1.15-.378 1.778 1.025 1.987 7.066 1.255 11.165 8.469 9.115 14.167-.162.418-.431.94.108 1.255.486.261.917-.157 1.187-.523 3.182-3.503 5.394-7.476 5.286-12.337-.27-4.862-1.942-9.097-5.772-12.39-.54-.47-1.078-.68-1.618-.68-.377 0-.755.105-1.24.314z" fill="#fff"/></mask><g mask="url(#prefix__T)"><path d="M24.489 1.695h-.378v26.4h.378v-26.4z" fill="url(#prefix__paint46_linear_150_5128)"/></g><mask id="prefix__U" style="mask-type:luminance" maskUnits="userSpaceOnUse" x="9" y="1" width="18" height="27"><path d="M17.639 2.218c-3.776 1.725-6.473 4.444-8.091 8.207-.54 1.15-.378 1.778 1.025 1.987 7.066 1.255 11.165 8.469 9.115 14.167-.162.418-.431.94.108 1.255.486.261.917-.157 1.187-.523 3.182-3.503 5.394-7.476 5.286-12.337-.27-4.862-1.942-9.097-5.772-12.39-.54-.47-1.078-.68-1.618-.68-.377 0-.755.105-1.24.314z" fill="#fff"/></mask><g mask="url(#prefix__U)"><path d="M24.92 1.695h-.377v26.4h.378v-26.4z" fill="url(#prefix__paint47_linear_150_5128)"/></g><mask id="prefix__V" style="mask-type:luminance" maskUnits="userSpaceOnUse" x="9" y="1" width="18" height="27"><path d="M17.639 2.218c-3.776 1.725-6.473 4.444-8.091 8.207-.54 1.15-.378 1.778 1.025 1.987 7.066 1.255 11.165 8.469 9.115 14.167-.162.418-.431.94.108 1.255.486.261.917-.157 1.187-.523 3.182-3.503 5.394-7.476 5.286-12.337-.27-4.862-1.942-9.097-5.772-12.39-.54-.47-1.078-.68-1.618-.68-.377 0-.755.105-1.24.314z" fill="#fff"/></mask><g mask="url(#prefix__V)"><path d="M25.298 1.695h-.378v26.4h.378v-26.4z" fill="url(#prefix__paint48_linear_150_5128)"/></g><mask id="prefix__W" style="mask-type:luminance" maskUnits="userSpaceOnUse" x="9" y="1" width="18" height="27"><path d="M17.639 2.218c-3.776 1.725-6.473 4.444-8.091 8.207-.54 1.15-.378 1.778 1.025 1.987 7.066 1.255 11.165 8.469 9.115 14.167-.162.418-.431.94.108 1.255.486.261.917-.157 1.187-.523 3.182-3.503 5.394-7.476 5.286-12.337-.27-4.862-1.942-9.097-5.772-12.39-.54-.47-1.078-.68-1.618-.68-.377 0-.755.105-1.24.314z" fill="#fff"/></mask><g mask="url(#prefix__W)"><path d="M25.675 1.695h-.377v26.4h.377v-26.4z" fill="url(#prefix__paint49_linear_150_5128)"/></g><mask id="prefix__X" style="mask-type:luminance" maskUnits="userSpaceOnUse" x="9" y="1" width="18" height="27"><path d="M17.639 2.218c-3.776 1.725-6.473 4.444-8.091 8.207-.54 1.15-.378 1.778 1.025 1.987 7.066 1.255 11.165 8.469 9.115 14.167-.162.418-.431.94.108 1.255.486.261.917-.157 1.187-.523 3.182-3.503 5.394-7.476 5.286-12.337-.27-4.862-1.942-9.097-5.772-12.39-.54-.47-1.078-.68-1.618-.68-.377 0-.755.105-1.24.314z" fill="#fff"/></mask><g mask="url(#prefix__X)"><path d="M26.107 1.695h-.377v26.4h.377v-26.4z" fill="url(#prefix__paint50_linear_150_5128)"/></g><mask id="prefix__Y" style="mask-type:luminance" maskUnits="userSpaceOnUse" x="9" y="1" width="18" height="27"><path d="M17.639 2.218c-3.776 1.725-6.473 4.444-8.091 8.207-.54 1.15-.378 1.778 1.025 1.987 7.066 1.255 11.165 8.469 9.115 14.167-.162.418-.431.94.108 1.255.486.261.917-.157 1.187-.523 3.182-3.503 5.394-7.476 5.286-12.337-.27-4.862-1.942-9.097-5.772-12.39-.54-.47-1.078-.68-1.618-.68-.377 0-.755.105-1.24.314z" fill="#fff"/></mask><g mask="url(#prefix__Y)"><path d="M26.377 1.695h-.27v26.4h.27v-26.4z" fill="url(#prefix__paint51_linear_150_5128)"/></g><path d="M0 23.338c.054 4.6 3.507 8.26 8.2 8.416 4.692.105 8.522-3.398 8.576-7.946.107-4.652-3.345-8.05-7.93-8.364h-.539c-4.477 0-8.36 3.92-8.306 7.894z" fill="url(#prefix__paint52_linear_150_5128)"/><mask id="prefix__Z" style="mask-type:luminance" maskUnits="userSpaceOnUse" x="0" y="15" width="17" height="17"><path d="M0 23.338c.054 4.6 3.507 8.26 8.2 8.416 4.692.105 8.522-3.398 8.576-7.946.107-4.652-3.345-8.05-7.93-8.364h-.539c-4.477 0-8.36 3.92-8.306 7.894z" fill="#fff"/></mask><g mask="url(#prefix__Z)"><path d="M0 15.13h-.053V31.86H0V15.13z" fill="url(#prefix__paint53_linear_150_5128)"/></g><mask id="prefix__aa" style="mask-type:luminance" maskUnits="userSpaceOnUse" x="0" y="15" width="17" height="17"><path d="M0 23.338c.054 4.6 3.507 8.26 8.2 8.416 4.692.105 8.522-3.398 8.576-7.946.107-4.652-3.345-8.05-7.93-8.364h-.539c-4.477 0-8.36 3.92-8.306 7.894z" fill="#fff"/></mask><g mask="url(#prefix__aa)"><path d="M3.938 15.13H.001V31.86h3.937V15.13z" fill="url(#prefix__paint54_linear_150_5128)"/></g><mask id="prefix__ab" style="mask-type:luminance" maskUnits="userSpaceOnUse" x="0" y="15" width="17" height="17"><path d="M0 23.338c.054 4.6 3.507 8.26 8.2 8.416 4.692.105 8.522-3.398 8.576-7.946.107-4.652-3.345-8.05-7.93-8.364h-.539c-4.477 0-8.36 3.92-8.306 7.894z" fill="#fff"/></mask><g mask="url(#prefix__ab)"><path d="M7.876 15.13H3.938V31.86h3.938V15.13z" fill="url(#prefix__paint55_linear_150_5128)"/></g><mask id="prefix__ac" style="mask-type:luminance" maskUnits="userSpaceOnUse" x="0" y="15" width="17" height="17"><path d="M0 23.338c.054 4.6 3.507 8.26 8.2 8.416 4.692.105 8.522-3.398 8.576-7.946.107-4.652-3.345-8.05-7.93-8.364h-.539c-4.477 0-8.36 3.92-8.306 7.894z" fill="#fff"/></mask><g mask="url(#prefix__ac)"><path d="M8.307 15.13H7.93V31.86h.377V15.13z" fill="url(#prefix__paint56_linear_150_5128)"/></g><mask id="prefix__ad" style="mask-type:luminance" maskUnits="userSpaceOnUse" x="0" y="15" width="17" height="17"><path d="M0 23.338c.054 4.6 3.507 8.26 8.2 8.416 4.692.105 8.522-3.398 8.576-7.946.107-4.652-3.345-8.05-7.93-8.364h-.539c-4.477 0-8.36 3.92-8.306 7.894z" fill="#fff"/></mask><g mask="url(#prefix__ad)"><path d="M8.685 15.13h-.378V31.86h.378V15.13z" fill="url(#prefix__paint57_linear_150_5128)"/></g><mask id="prefix__ae" style="mask-type:luminance" maskUnits="userSpaceOnUse" x="0" y="15" width="17" height="17"><path d="M0 23.338c.054 4.6 3.507 8.26 8.2 8.416 4.692.105 8.522-3.398 8.576-7.946.107-4.652-3.345-8.05-7.93-8.364h-.539c-4.477 0-8.36 3.92-8.306 7.894z" fill="#fff"/></mask><g mask="url(#prefix__ae)"><path d="M9.062 15.13h-.377V31.86h.377V15.13z" fill="url(#prefix__paint58_linear_150_5128)"/></g><mask id="prefix__af" style="mask-type:luminance" maskUnits="userSpaceOnUse" x="0" y="15" width="17" height="17"><path d="M0 23.338c.054 4.6 3.507 8.26 8.2 8.416 4.692.105 8.522-3.398 8.576-7.946.107-4.652-3.345-8.05-7.93-8.364h-.539c-4.477 0-8.36 3.92-8.306 7.894z" fill="#fff"/></mask><g mask="url(#prefix__af)"><path d="M9.494 15.13h-.378V31.86h.378V15.13z" fill="url(#prefix__paint59_linear_150_5128)"/></g><mask id="prefix__ag" style="mask-type:luminance" maskUnits="userSpaceOnUse" x="0" y="15" width="17" height="17"><path d="M0 23.338c.054 4.6 3.507 8.26 8.2 8.416 4.692.105 8.522-3.398 8.576-7.946.107-4.652-3.345-8.05-7.93-8.364h-.539c-4.477 0-8.36 3.92-8.306 7.894z" fill="#fff"/></mask><g mask="url(#prefix__ag)"><path d="M9.871 15.13h-.377V31.86h.377V15.13z" fill="url(#prefix__paint60_linear_150_5128)"/></g><mask id="prefix__ah" style="mask-type:luminance" maskUnits="userSpaceOnUse" x="0" y="15" width="17" height="17"><path d="M0 23.338c.054 4.6 3.507 8.26 8.2 8.416 4.692.105 8.522-3.398 8.576-7.946.107-4.652-3.345-8.05-7.93-8.364h-.539c-4.477 0-8.36 3.92-8.306 7.894z" fill="#fff"/></mask><g mask="url(#prefix__ah)"><path d="M10.249 15.13H9.87V31.86h.378V15.13z" fill="url(#prefix__paint61_linear_150_5128)"/></g><mask id="prefix__ai" style="mask-type:luminance" maskUnits="userSpaceOnUse" x="0" y="15" width="17" height="17"><path d="M0 23.338c.054 4.6 3.507 8.26 8.2 8.416 4.692.105 8.522-3.398 8.576-7.946.107-4.652-3.345-8.05-7.93-8.364h-.539c-4.477 0-8.36 3.92-8.306 7.894z" fill="#fff"/></mask><g mask="url(#prefix__ai)"><path d="M10.68 15.13h-.377V31.86h.378V15.13z" fill="url(#prefix__paint62_linear_150_5128)"/></g><mask id="prefix__aj" style="mask-type:luminance" maskUnits="userSpaceOnUse" x="0" y="15" width="17" height="17"><path d="M0 23.338c.054 4.6 3.507 8.26 8.2 8.416 4.692.105 8.522-3.398 8.576-7.946.107-4.652-3.345-8.05-7.93-8.364h-.539c-4.477 0-8.36 3.92-8.306 7.894z" fill="#fff"/></mask><g mask="url(#prefix__aj)"><path d="M11.058 15.13h-.378V31.86h.378V15.13z" fill="url(#prefix__paint63_linear_150_5128)"/></g><mask id="prefix__ak" style="mask-type:luminance" maskUnits="userSpaceOnUse" x="0" y="15" width="17" height="17"><path d="M0 23.338c.054 4.6 3.507 8.26 8.2 8.416 4.692.105 8.522-3.398 8.576-7.946.107-4.652-3.345-8.05-7.93-8.364h-.539c-4.477 0-8.36 3.92-8.306 7.894z" fill="#fff"/></mask><g mask="url(#prefix__ak)"><path d="M11.436 15.13h-.378V31.86h.378V15.13z" fill="url(#prefix__paint64_linear_150_5128)"/></g><mask id="prefix__al" style="mask-type:luminance" maskUnits="userSpaceOnUse" x="0" y="15" width="17" height="17"><path d="M0 23.338c.054 4.6 3.507 8.26 8.2 8.416 4.692.105 8.522-3.398 8.576-7.946.107-4.652-3.345-8.05-7.93-8.364h-.539c-4.477 0-8.36 3.92-8.306 7.894z" fill="#fff"/></mask><g mask="url(#prefix__al)"><path d="M11.867 15.13h-.378V31.86h.378V15.13z" fill="url(#prefix__paint65_linear_150_5128)"/></g><mask id="prefix__am" style="mask-type:luminance" maskUnits="userSpaceOnUse" x="0" y="15" width="17" height="17"><path d="M0 23.338c.054 4.6 3.507 8.26 8.2 8.416 4.692.105 8.522-3.398 8.576-7.946.107-4.652-3.345-8.05-7.93-8.364h-.539c-4.477 0-8.36 3.92-8.306 7.894z" fill="#fff"/></mask><g mask="url(#prefix__am)"><path d="M12.245 15.13h-.378V31.86h.378V15.13z" fill="url(#prefix__paint66_linear_150_5128)"/></g><mask id="prefix__an" style="mask-type:luminance" maskUnits="userSpaceOnUse" x="0" y="15" width="17" height="17"><path d="M0 23.338c.054 4.6 3.507 8.26 8.2 8.416 4.692.105 8.522-3.398 8.576-7.946.107-4.652-3.345-8.05-7.93-8.364h-.539c-4.477 0-8.36 3.92-8.306 7.894z" fill="#fff"/></mask><g mask="url(#prefix__an)"><path d="M12.622 15.13h-.377V31.86h.377V15.13z" fill="url(#prefix__paint67_linear_150_5128)"/></g><mask id="prefix__ao" style="mask-type:luminance" maskUnits="userSpaceOnUse" x="0" y="15" width="17" height="17"><path d="M0 23.338c.054 4.6 3.507 8.26 8.2 8.416 4.692.105 8.522-3.398 8.576-7.946.107-4.652-3.345-8.05-7.93-8.364h-.539c-4.477 0-8.36 3.92-8.306 7.894z" fill="#fff"/></mask><g mask="url(#prefix__ao)"><path d="M13.054 15.13h-.378V31.86h.378V15.13z" fill="url(#prefix__paint68_linear_150_5128)"/></g><mask id="prefix__ap" style="mask-type:luminance" maskUnits="userSpaceOnUse" x="0" y="15" width="17" height="17"><path d="M0 23.338c.054 4.6 3.507 8.26 8.2 8.416 4.692.105 8.522-3.398 8.576-7.946.107-4.652-3.345-8.05-7.93-8.364h-.539c-4.477 0-8.36 3.92-8.306 7.894z" fill="#fff"/></mask><g mask="url(#prefix__ap)"><path d="M13.431 15.13h-.377V31.86h.377V15.13z" fill="url(#prefix__paint69_linear_150_5128)"/></g><mask id="prefix__aq" style="mask-type:luminance" maskUnits="userSpaceOnUse" x="0" y="15" width="17" height="17"><path d="M0 23.338c.054 4.6 3.507 8.26 8.2 8.416 4.692.105 8.522-3.398 8.576-7.946.107-4.652-3.345-8.05-7.93-8.364h-.539c-4.477 0-8.36 3.92-8.306 7.894z" fill="#fff"/></mask><g mask="url(#prefix__aq)"><path d="M13.809 15.13h-.378V31.86h.378V15.13z" fill="url(#prefix__paint70_linear_150_5128)"/></g><mask id="prefix__ar" style="mask-type:luminance" maskUnits="userSpaceOnUse" x="0" y="15" width="17" height="17"><path d="M0 23.338c.054 4.6 3.507 8.26 8.2 8.416 4.692.105 8.522-3.398 8.576-7.946.107-4.652-3.345-8.05-7.93-8.364h-.539c-4.477 0-8.36 3.92-8.306 7.894z" fill="#fff"/></mask><g mask="url(#prefix__ar)"><path d="M14.24 15.13h-.377V31.86h.378V15.13z" fill="url(#prefix__paint71_linear_150_5128)"/></g><mask id="prefix__as" style="mask-type:luminance" maskUnits="userSpaceOnUse" x="0" y="15" width="17" height="17"><path d="M0 23.338c.054 4.6 3.507 8.26 8.2 8.416 4.692.105 8.522-3.398 8.576-7.946.107-4.652-3.345-8.05-7.93-8.364h-.539c-4.477 0-8.36 3.92-8.306 7.894z" fill="#fff"/></mask><g mask="url(#prefix__as)"><path d="M14.618 15.13h-.377V31.86h.377V15.13z" fill="url(#prefix__paint72_linear_150_5128)"/></g><mask id="prefix__at" style="mask-type:luminance" maskUnits="userSpaceOnUse" x="0" y="15" width="17" height="17"><path d="M0 23.338c.054 4.6 3.507 8.26 8.2 8.416 4.692.105 8.522-3.398 8.576-7.946.107-4.652-3.345-8.05-7.93-8.364h-.539c-4.477 0-8.36 3.92-8.306 7.894z" fill="#fff"/></mask><g mask="url(#prefix__at)"><path d="M14.996 15.13h-.378V31.86h.378V15.13z" fill="url(#prefix__paint73_linear_150_5128)"/></g><mask id="prefix__au" style="mask-type:luminance" maskUnits="userSpaceOnUse" x="0" y="15" width="17" height="17"><path d="M0 23.338c.054 4.6 3.507 8.26 8.2 8.416 4.692.105 8.522-3.398 8.576-7.946.107-4.652-3.345-8.05-7.93-8.364h-.539c-4.477 0-8.36 3.92-8.306 7.894z" fill="#fff"/></mask><g mask="url(#prefix__au)"><path d="M15.373 15.13h-.377V31.86h.377V15.13z" fill="url(#prefix__paint74_linear_150_5128)"/></g><mask id="prefix__av" style="mask-type:luminance" maskUnits="userSpaceOnUse" x="0" y="15" width="17" height="17"><path d="M0 23.338c.054 4.6 3.507 8.26 8.2 8.416 4.692.105 8.522-3.398 8.576-7.946.107-4.652-3.345-8.05-7.93-8.364h-.539c-4.477 0-8.36 3.92-8.306 7.894z" fill="#fff"/></mask><g mask="url(#prefix__av)"><path d="M15.805 15.13h-.378V31.86h.378V15.13z" fill="url(#prefix__paint75_linear_150_5128)"/></g><mask id="prefix__aw" style="mask-type:luminance" maskUnits="userSpaceOnUse" x="0" y="15" width="17" height="17"><path d="M0 23.338c.054 4.6 3.507 8.26 8.2 8.416 4.692.105 8.522-3.398 8.576-7.946.107-4.652-3.345-8.05-7.93-8.364h-.539c-4.477 0-8.36 3.92-8.306 7.894z" fill="#fff"/></mask><g mask="url(#prefix__aw)"><path d="M16.183 15.13h-.378V31.86h.378V15.13z" fill="url(#prefix__paint76_linear_150_5128)"/></g><mask id="prefix__ax" style="mask-type:luminance" maskUnits="userSpaceOnUse" x="0" y="15" width="17" height="17"><path d="M0 23.338c.054 4.6 3.507 8.26 8.2 8.416 4.692.105 8.522-3.398 8.576-7.946.107-4.652-3.345-8.05-7.93-8.364h-.539c-4.477 0-8.36 3.92-8.306 7.894z" fill="#fff"/></mask><g mask="url(#prefix__ax)"><path d="M16.56 15.13h-.378V31.86h.378V15.13z" fill="url(#prefix__paint77_linear_150_5128)"/></g><mask id="prefix__ay" style="mask-type:luminance" maskUnits="userSpaceOnUse" x="0" y="15" width="17" height="17"><path d="M0 23.338c.054 4.6 3.507 8.26 8.2 8.416 4.692.105 8.522-3.398 8.576-7.946.107-4.652-3.345-8.05-7.93-8.364h-.539c-4.477 0-8.36 3.92-8.306 7.894z" fill="#fff"/></mask><g mask="url(#prefix__ay)"><path d="M16.884 15.13h-.27V31.86h.27V15.13z" fill="url(#prefix__paint78_linear_150_5128)"/></g><path d="M42.936 20.097c-.432 1.986-1.241 3.92-2.32 5.698-1.24 1.986-2.858 3.607-4.746 5.28-.216.209-.108.575.162.575 2.265.366 4.26.209 6.31 0 3.614-.366 5.988-2.196 6.527-5.019.54-2.77-.54-6.273-4.153-7.475a2.486 2.486 0 00-.917-.21c-.432.105-.648.366-.863 1.15z" fill="url(#prefix__paint79_linear_150_5128)"/><mask id="prefix__az" style="mask-type:luminance" maskUnits="userSpaceOnUse" x="35" y="18" width="14" height="14"><path d="M42.936 20.097c-.432 1.986-1.241 3.92-2.32 5.698-1.24 1.986-2.858 3.607-4.746 5.28-.216.209-.108.575.162.575 2.265.366 4.26.209 6.31 0 3.614-.366 5.988-2.196 6.527-5.019.54-2.77-.54-6.273-4.153-7.475a2.486 2.486 0 00-.917-.21c-.432.105-.648.366-.863 1.15z" fill="#fff"/></mask><g mask="url(#prefix__az)"><path d="M38.621 18.894h-3.236V32.12h3.236V18.894z" fill="url(#prefix__paint80_linear_150_5128)"/></g><mask id="prefix__aA" style="mask-type:luminance" maskUnits="userSpaceOnUse" x="35" y="18" width="14" height="14"><path d="M42.936 20.097c-.432 1.986-1.241 3.92-2.32 5.698-1.24 1.986-2.858 3.607-4.746 5.28-.216.209-.108.575.162.575 2.265.366 4.26.209 6.31 0 3.614-.366 5.988-2.196 6.527-5.019.54-2.77-.54-6.273-4.153-7.475a2.486 2.486 0 00-.917-.21c-.432.105-.648.366-.863 1.15z" fill="#fff"/></mask><g mask="url(#prefix__aA)"><path d="M41.803 18.894h-3.236V32.12h3.236V18.894z" fill="url(#prefix__paint81_linear_150_5128)"/></g><mask id="prefix__aB" style="mask-type:luminance" maskUnits="userSpaceOnUse" x="35" y="18" width="14" height="14"><path d="M42.936 20.097c-.432 1.986-1.241 3.92-2.32 5.698-1.24 1.986-2.858 3.607-4.746 5.28-.216.209-.108.575.162.575 2.265.366 4.26.209 6.31 0 3.614-.366 5.988-2.196 6.527-5.019.54-2.77-.54-6.273-4.153-7.475a2.486 2.486 0 00-.917-.21c-.432.105-.648.366-.863 1.15z" fill="#fff"/></mask><g mask="url(#prefix__aB)"><path d="M42.127 18.894h-.324V32.12h.324V18.894z" fill="url(#prefix__paint82_linear_150_5128)"/></g><mask id="prefix__aC" style="mask-type:luminance" maskUnits="userSpaceOnUse" x="35" y="18" width="14" height="14"><path d="M42.936 20.097c-.432 1.986-1.241 3.92-2.32 5.698-1.24 1.986-2.858 3.607-4.746 5.28-.216.209-.108.575.162.575 2.265.366 4.26.209 6.31 0 3.614-.366 5.988-2.196 6.527-5.019.54-2.77-.54-6.273-4.153-7.475a2.486 2.486 0 00-.917-.21c-.432.105-.648.366-.863 1.15z" fill="#fff"/></mask><g mask="url(#prefix__aC)"><path d="M42.45 18.894h-.323V32.12h.323V18.894z" fill="url(#prefix__paint83_linear_150_5128)"/></g><mask id="prefix__aD" style="mask-type:luminance" maskUnits="userSpaceOnUse" x="35" y="18" width="14" height="14"><path d="M42.936 20.097c-.432 1.986-1.241 3.92-2.32 5.698-1.24 1.986-2.858 3.607-4.746 5.28-.216.209-.108.575.162.575 2.265.366 4.26.209 6.31 0 3.614-.366 5.988-2.196 6.527-5.019.54-2.77-.54-6.273-4.153-7.475a2.486 2.486 0 00-.917-.21c-.432.105-.648.366-.863 1.15z" fill="#fff"/></mask><g mask="url(#prefix__aD)"><path d="M42.774 18.894h-.324V32.12h.324V18.894z" fill="url(#prefix__paint84_linear_150_5128)"/></g><mask id="prefix__aE" style="mask-type:luminance" maskUnits="userSpaceOnUse" x="35" y="18" width="14" height="14"><path d="M42.936 20.097c-.432 1.986-1.241 3.92-2.32 5.698-1.24 1.986-2.858 3.607-4.746 5.28-.216.209-.108.575.162.575 2.265.366 4.26.209 6.31 0 3.614-.366 5.988-2.196 6.527-5.019.54-2.77-.54-6.273-4.153-7.475a2.486 2.486 0 00-.917-.21c-.432.105-.648.366-.863 1.15z" fill="#fff"/></mask><g mask="url(#prefix__aE)"><path d="M43.098 18.894h-.324V32.12h.324V18.894z" fill="url(#prefix__paint85_linear_150_5128)"/></g><mask id="prefix__aF" style="mask-type:luminance" maskUnits="userSpaceOnUse" x="35" y="18" width="14" height="14"><path d="M42.936 20.097c-.432 1.986-1.241 3.92-2.32 5.698-1.24 1.986-2.858 3.607-4.746 5.28-.216.209-.108.575.162.575 2.265.366 4.26.209 6.31 0 3.614-.366 5.988-2.196 6.527-5.019.54-2.77-.54-6.273-4.153-7.475a2.486 2.486 0 00-.917-.21c-.432.105-.648.366-.863 1.15z" fill="#fff"/></mask><g mask="url(#prefix__aF)"><path d="M43.421 18.894h-.323V32.12h.323V18.894z" fill="url(#prefix__paint86_linear_150_5128)"/></g><mask id="prefix__aG" style="mask-type:luminance" maskUnits="userSpaceOnUse" x="35" y="18" width="14" height="14"><path d="M42.936 20.097c-.432 1.986-1.241 3.92-2.32 5.698-1.24 1.986-2.858 3.607-4.746 5.28-.216.209-.108.575.162.575 2.265.366 4.26.209 6.31 0 3.614-.366 5.988-2.196 6.527-5.019.54-2.77-.54-6.273-4.153-7.475a2.486 2.486 0 00-.917-.21c-.432.105-.648.366-.863 1.15z" fill="#fff"/></mask><g mask="url(#prefix__aG)"><path d="M43.745 18.894h-.324V32.12h.324V18.894z" fill="url(#prefix__paint87_linear_150_5128)"/></g><mask id="prefix__aH" style="mask-type:luminance" maskUnits="userSpaceOnUse" x="35" y="18" width="14" height="14"><path d="M42.936 20.097c-.432 1.986-1.241 3.92-2.32 5.698-1.24 1.986-2.858 3.607-4.746 5.28-.216.209-.108.575.162.575 2.265.366 4.26.209 6.31 0 3.614-.366 5.988-2.196 6.527-5.019.54-2.77-.54-6.273-4.153-7.475a2.486 2.486 0 00-.917-.21c-.432.105-.648.366-.863 1.15z" fill="#fff"/></mask><g mask="url(#prefix__aH)"><path d="M44.069 18.894h-.324V32.12h.324V18.894z" fill="url(#prefix__paint88_linear_150_5128)"/></g><mask id="prefix__aI" style="mask-type:luminance" maskUnits="userSpaceOnUse" x="35" y="18" width="14" height="14"><path d="M42.936 20.097c-.432 1.986-1.241 3.92-2.32 5.698-1.24 1.986-2.858 3.607-4.746 5.28-.216.209-.108.575.162.575 2.265.366 4.26.209 6.31 0 3.614-.366 5.988-2.196 6.527-5.019.54-2.77-.54-6.273-4.153-7.475a2.486 2.486 0 00-.917-.21c-.432.105-.648.366-.863 1.15z" fill="#fff"/></mask><g mask="url(#prefix__aI)"><path d="M44.392 18.894h-.323V32.12h.323V18.894z" fill="url(#prefix__paint89_linear_150_5128)"/></g><mask id="prefix__aJ" style="mask-type:luminance" maskUnits="userSpaceOnUse" x="35" y="18" width="14" height="14"><path d="M42.936 20.097c-.432 1.986-1.241 3.92-2.32 5.698-1.24 1.986-2.858 3.607-4.746 5.28-.216.209-.108.575.162.575 2.265.366 4.26.209 6.31 0 3.614-.366 5.988-2.196 6.527-5.019.54-2.77-.54-6.273-4.153-7.475a2.486 2.486 0 00-.917-.21c-.432.105-.648.366-.863 1.15z" fill="#fff"/></mask><g mask="url(#prefix__aJ)"><path d="M44.716 18.894h-.323V32.12h.323V18.894z" fill="url(#prefix__paint90_linear_150_5128)"/></g><mask id="prefix__aK" style="mask-type:luminance" maskUnits="userSpaceOnUse" x="35" y="18" width="14" height="14"><path d="M42.936 20.097c-.432 1.986-1.241 3.92-2.32 5.698-1.24 1.986-2.858 3.607-4.746 5.28-.216.209-.108.575.162.575 2.265.366 4.26.209 6.31 0 3.614-.366 5.988-2.196 6.527-5.019.54-2.77-.54-6.273-4.153-7.475a2.486 2.486 0 00-.917-.21c-.432.105-.648.366-.863 1.15z" fill="#fff"/></mask><g mask="url(#prefix__aK)"><path d="M44.986 18.894h-.324V32.12h.324V18.894z" fill="url(#prefix__paint91_linear_150_5128)"/></g><mask id="prefix__aL" style="mask-type:luminance" maskUnits="userSpaceOnUse" x="35" y="18" width="14" height="14"><path d="M42.936 20.097c-.432 1.986-1.241 3.92-2.32 5.698-1.24 1.986-2.858 3.607-4.746 5.28-.216.209-.108.575.162.575 2.265.366 4.26.209 6.31 0 3.614-.366 5.988-2.196 6.527-5.019.54-2.77-.54-6.273-4.153-7.475a2.486 2.486 0 00-.917-.21c-.432.105-.648.366-.863 1.15z" fill="#fff"/></mask><g mask="url(#prefix__aL)"><path d="M45.31 18.894h-.324V32.12h.323V18.894z" fill="url(#prefix__paint92_linear_150_5128)"/></g><mask id="prefix__aM" style="mask-type:luminance" maskUnits="userSpaceOnUse" x="35" y="18" width="14" height="14"><path d="M42.936 20.097c-.432 1.986-1.241 3.92-2.32 5.698-1.24 1.986-2.858 3.607-4.746 5.28-.216.209-.108.575.162.575 2.265.366 4.26.209 6.31 0 3.614-.366 5.988-2.196 6.527-5.019.54-2.77-.54-6.273-4.153-7.475a2.486 2.486 0 00-.917-.21c-.432.105-.648.366-.863 1.15z" fill="#fff"/></mask><g mask="url(#prefix__aM)"><path d="M45.633 18.894h-.324V32.12h.324V18.894z" fill="url(#prefix__paint93_linear_150_5128)"/></g><mask id="prefix__aN" style="mask-type:luminance" maskUnits="userSpaceOnUse" x="35" y="18" width="14" height="14"><path d="M42.936 20.097c-.432 1.986-1.241 3.92-2.32 5.698-1.24 1.986-2.858 3.607-4.746 5.28-.216.209-.108.575.162.575 2.265.366 4.26.209 6.31 0 3.614-.366 5.988-2.196 6.527-5.019.54-2.77-.54-6.273-4.153-7.475a2.486 2.486 0 00-.917-.21c-.432.105-.648.366-.863 1.15z" fill="#fff"/></mask><g mask="url(#prefix__aN)"><path d="M45.956 18.894h-.323V32.12h.323V18.894z" fill="url(#prefix__paint94_linear_150_5128)"/></g><mask id="prefix__aO" style="mask-type:luminance" maskUnits="userSpaceOnUse" x="35" y="18" width="14" height="14"><path d="M42.936 20.097c-.432 1.986-1.241 3.92-2.32 5.698-1.24 1.986-2.858 3.607-4.746 5.28-.216.209-.108.575.162.575 2.265.366 4.26.209 6.31 0 3.614-.366 5.988-2.196 6.527-5.019.54-2.77-.54-6.273-4.153-7.475a2.486 2.486 0 00-.917-.21c-.432.105-.648.366-.863 1.15z" fill="#fff"/></mask><g mask="url(#prefix__aO)"><path d="M46.28 18.894h-.324V32.12h.324V18.894z" fill="url(#prefix__paint95_linear_150_5128)"/></g><mask id="prefix__aP" style="mask-type:luminance" maskUnits="userSpaceOnUse" x="35" y="18" width="14" height="14"><path d="M42.936 20.097c-.432 1.986-1.241 3.92-2.32 5.698-1.24 1.986-2.858 3.607-4.746 5.28-.216.209-.108.575.162.575 2.265.366 4.26.209 6.31 0 3.614-.366 5.988-2.196 6.527-5.019.54-2.77-.54-6.273-4.153-7.475a2.486 2.486 0 00-.917-.21c-.432.105-.648.366-.863 1.15z" fill="#fff"/></mask><g mask="url(#prefix__aP)"><path d="M46.604 18.894h-.324V32.12h.324V18.894z" fill="url(#prefix__paint96_linear_150_5128)"/></g><mask id="prefix__aQ" style="mask-type:luminance" maskUnits="userSpaceOnUse" x="35" y="18" width="14" height="14"><path d="M42.936 20.097c-.432 1.986-1.241 3.92-2.32 5.698-1.24 1.986-2.858 3.607-4.746 5.28-.216.209-.108.575.162.575 2.265.366 4.26.209 6.31 0 3.614-.366 5.988-2.196 6.527-5.019.54-2.77-.54-6.273-4.153-7.475a2.486 2.486 0 00-.917-.21c-.432.105-.648.366-.863 1.15z" fill="#fff"/></mask><g mask="url(#prefix__aQ)"><path d="M46.927 18.894h-.323V32.12h.323V18.894z" fill="url(#prefix__paint97_linear_150_5128)"/></g><mask id="prefix__aR" style="mask-type:luminance" maskUnits="userSpaceOnUse" x="35" y="18" width="14" height="14"><path d="M42.936 20.097c-.432 1.986-1.241 3.92-2.32 5.698-1.24 1.986-2.858 3.607-4.746 5.28-.216.209-.108.575.162.575 2.265.366 4.26.209 6.31 0 3.614-.366 5.988-2.196 6.527-5.019.54-2.77-.54-6.273-4.153-7.475a2.486 2.486 0 00-.917-.21c-.432.105-.648.366-.863 1.15z" fill="#fff"/></mask><g mask="url(#prefix__aR)"><path d="M47.251 18.894h-.323V32.12h.323V18.894z" fill="url(#prefix__paint98_linear_150_5128)"/></g><mask id="prefix__aS" style="mask-type:luminance" maskUnits="userSpaceOnUse" x="35" y="18" width="14" height="14"><path d="M42.936 20.097c-.432 1.986-1.241 3.92-2.32 5.698-1.24 1.986-2.858 3.607-4.746 5.28-.216.209-.108.575.162.575 2.265.366 4.26.209 6.31 0 3.614-.366 5.988-2.196 6.527-5.019.54-2.77-.54-6.273-4.153-7.475a2.486 2.486 0 00-.917-.21c-.432.105-.648.366-.863 1.15z" fill="#fff"/></mask><g mask="url(#prefix__aS)"><path d="M47.575 18.894h-.324V32.12h.324V18.894z" fill="url(#prefix__paint99_linear_150_5128)"/></g><mask id="prefix__aT" style="mask-type:luminance" maskUnits="userSpaceOnUse" x="35" y="18" width="14" height="14"><path d="M42.936 20.097c-.432 1.986-1.241 3.92-2.32 5.698-1.24 1.986-2.858 3.607-4.746 5.28-.216.209-.108.575.162.575 2.265.366 4.26.209 6.31 0 3.614-.366 5.988-2.196 6.527-5.019.54-2.77-.54-6.273-4.153-7.475a2.486 2.486 0 00-.917-.21c-.432.105-.648.366-.863 1.15z" fill="#fff"/></mask><g mask="url(#prefix__aT)"><path d="M47.898 18.894h-.323V32.12h.323V18.894z" fill="url(#prefix__paint100_linear_150_5128)"/></g><mask id="prefix__aU" style="mask-type:luminance" maskUnits="userSpaceOnUse" x="35" y="18" width="14" height="14"><path d="M42.936 20.097c-.432 1.986-1.241 3.92-2.32 5.698-1.24 1.986-2.858 3.607-4.746 5.28-.216.209-.108.575.162.575 2.265.366 4.26.209 6.31 0 3.614-.366 5.988-2.196 6.527-5.019.54-2.77-.54-6.273-4.153-7.475a2.486 2.486 0 00-.917-.21c-.432.105-.648.366-.863 1.15z" fill="#fff"/></mask><g mask="url(#prefix__aU)"><path d="M48.222 18.894h-.324V32.12h.324V18.894z" fill="url(#prefix__paint101_linear_150_5128)"/></g><mask id="prefix__aV" style="mask-type:luminance" maskUnits="userSpaceOnUse" x="35" y="18" width="14" height="14"><path d="M42.936 20.097c-.432 1.986-1.241 3.92-2.32 5.698-1.24 1.986-2.858 3.607-4.746 5.28-.216.209-.108.575.162.575 2.265.366 4.26.209 6.31 0 3.614-.366 5.988-2.196 6.527-5.019.54-2.77-.54-6.273-4.153-7.475a2.486 2.486 0 00-.917-.21c-.432.105-.648.366-.863 1.15z" fill="#fff"/></mask><g mask="url(#prefix__aV)"><path d="M48.546 18.894h-.324V32.12h.324V18.894z" fill="url(#prefix__paint102_linear_150_5128)"/></g><mask id="prefix__aW" style="mask-type:luminance" maskUnits="userSpaceOnUse" x="35" y="18" width="14" height="14"><path d="M42.936 20.097c-.432 1.986-1.241 3.92-2.32 5.698-1.24 1.986-2.858 3.607-4.746 5.28-.216.209-.108.575.162.575 2.265.366 4.26.209 6.31 0 3.614-.366 5.988-2.196 6.527-5.019.54-2.77-.54-6.273-4.153-7.475a2.486 2.486 0 00-.917-.21c-.432.105-.648.366-.863 1.15z" fill="#fff"/></mask><g mask="url(#prefix__aW)"><path d="M48.869 18.894h-.324V32.12h.324V18.894z" fill="url(#prefix__paint103_linear_150_5128)"/></g><mask id="prefix__aX" style="mask-type:luminance" maskUnits="userSpaceOnUse" x="35" y="18" width="14" height="14"><path d="M42.936 20.097c-.432 1.986-1.241 3.92-2.32 5.698-1.24 1.986-2.858 3.607-4.746 5.28-.216.209-.108.575.162.575 2.265.366 4.26.209 6.31 0 3.614-.366 5.988-2.196 6.527-5.019.54-2.77-.54-6.273-4.153-7.475a2.486 2.486 0 00-.917-.21c-.432.105-.648.366-.863 1.15z" fill="#fff"/></mask><g mask="url(#prefix__aX)"><path d="M49.409 18.894h-.54V32.12h.54V18.894z" fill="url(#prefix__paint104_linear_150_5128)"/></g><path d="M8.9 40.575c0 .19-.047.428-.19.619a3.201 3.201 0 01-.523.665c-.238.19-.571.381-.904.476-.38.143-.809.19-1.237.19-.998 0-1.76-.285-2.33-.856-.57-.57-.809-1.331-.809-2.33 0-.666.143-1.237.38-1.76.239-.523.62-.904 1.095-1.189.475-.285 1.046-.428 1.712-.428.428 0 .809.047 1.141.19.333.143.619.286.857.476.237.19.428.38.57.618.143.238.19.428.19.618a.61.61 0 01-.19.476c-.142.143-.333.19-.523.19a.687.687 0 01-.333-.095c-.095-.047-.19-.19-.285-.333-.19-.285-.38-.523-.618-.666-.19-.142-.476-.237-.809-.237-.476 0-.856.19-1.141.57-.286.38-.428.856-.428 1.522 0 .286.047.57.095.809.095.237.19.475.333.666.142.19.332.333.523.38.19.095.428.143.666.143.332 0 .57-.095.808-.238.238-.143.428-.38.618-.666.096-.19.19-.333.333-.428.095-.095.238-.143.428-.143s.38.096.476.238c.048.19.095.38.095.523zM11.373 34.82v6.944a.788.788 0 01-.238.571.788.788 0 01-.57.238.788.788 0 01-.571-.238.787.787 0 01-.238-.57V34.82c0-.238.095-.429.238-.571a.787.787 0 01.57-.238c.524 0 .81.238.81.809zM15.273 36.438c.856 0 1.57.285 2.188.903.57.57.904 1.332.904 2.188 0 .856-.286 1.57-.904 2.188-.57.57-1.332.903-2.188.903-.856 0-1.57-.285-2.188-.903a3.054 3.054 0 01-.903-2.188c0-.856.285-1.57.903-2.188.619-.618 1.332-.903 2.188-.903zm0 1.617c-.38 0-.76.142-.998.428a1.369 1.369 0 00-.428.998c0 .38.142.761.428 1.047.285.285.618.428.998.428s.761-.143 1.047-.428c.285-.286.428-.618.428-1.047 0-.38-.143-.76-.428-.998-.286-.238-.619-.428-1.047-.428zM20.838 37.246v2.663c0 .286.095.524.285.666.19.19.428.286.666.286.285 0 .476-.095.666-.286a.94.94 0 00.285-.666V37.2c0-.238.095-.429.238-.571a.788.788 0 01.57-.238c.239 0 .429.095.572.238a.787.787 0 01.237.57v2.711c0 .714-.237 1.332-.76 1.855-.476.523-1.095.761-1.855.761-.714 0-1.332-.237-1.855-.76a2.544 2.544 0 01-.761-1.856v-2.663c0-.238.095-.428.237-.57a.788.788 0 01.571-.239c.238 0 .428.096.571.238.238.143.333.333.333.571zM28.257 38.007c-.38 0-.76.143-.999.428a1.399 1.399 0 00-.428 1.046c0 .38.143.761.428 1 .286.285.619.427 1 .427.38 0 .76-.142 1.046-.428.285-.285.428-.618.428-.999v-4.708c0-.238.095-.428.237-.57a.788.788 0 01.571-.239c.238 0 .428.096.57.238a.787.787 0 01.239.57v4.71c0 .855-.286 1.569-.904 2.187-.618.57-1.332.904-2.188.904-.856 0-1.57-.286-2.188-.904a3.054 3.054 0 01-.903-2.188c0-.856.285-1.57.903-2.187a3.053 3.053 0 012.188-.904c.238 0 .428.095.57.238a.788.788 0 01.239.57.788.788 0 01-.238.571c-.095.19-.333.238-.57.238zM34.773 42.525c-.713 0-1.332-.237-1.855-.76a2.544 2.544 0 01-.76-1.856V37.2c0-.238.094-.429.237-.571a.788.788 0 01.57-.238c.524 0 .81.285.81.809v2.71c0 .286.094.524.285.666a.94.94 0 00.665.286c.286 0 .476-.095.666-.286a.939.939 0 00.286-.666V37.2c0-.238.095-.429.237-.571a.788.788 0 01.571-.238c.238 0 .428.095.571.238a.788.788 0 01.238.57v5.327c0 .714-.238 1.332-.761 1.855-.523.476-1.094.761-1.855.761h-.048a.788.788 0 01-.57-.238.788.788 0 01-.238-.57c0-.238.095-.428.238-.571a.788.788 0 01.57-.238h.048c.285 0 .476-.095.666-.285a.94.94 0 00.285-.666v-.238c-.19.143-.523.19-.856.19zM42.62 39.91h-2.806v1.854a.788.788 0 01-.237.571.787.787 0 01-.571.238.787.787 0 01-.57-.238.788.788 0 01-.239-.57V36.58c0-.713.238-1.331.761-1.855a2.544 2.544 0 011.855-.76c.713 0 1.332.237 1.855.76.476.523.76 1.094.76 1.855v.095a.788.788 0 01-.237.571.788.788 0 01-.57.238.787.787 0 01-.571-.238.788.788 0 01-.238-.57v-.096c0-.285-.095-.523-.285-.666a.939.939 0 00-.666-.285c-.286 0-.523.095-.666.285a.94.94 0 00-.286.666v1.712h2.806c.238 0 .429.096.571.238a.787.787 0 01.238.57.788.788 0 01-.238.572c-.238.142-.428.237-.666.237zM45.807 34.155c.19.19.286.428.286.713a.968.968 0 01-.286.713.968.968 0 01-.713.286.968.968 0 01-.713-.286.968.968 0 01-.286-.713c0-.285.095-.523.286-.713a.968.968 0 01.713-.286c.285 0 .523.095.713.286zm.096 3.091c0-.523-.286-.809-.809-.809a.788.788 0 00-.57.238.788.788 0 00-.239.571v4.47c0 .239.096.429.238.572a.787.787 0 00.571.237.788.788 0 00.57-.237.788.788 0 00.239-.571v-4.47z" fill="#231F20"/><defs><linearGradient id="prefix__paint0_linear_150_5128" x1="32.293" y1="16.3" x2="38.651" y2="16.3" gradientUnits="userSpaceOnUse"><stop offset=".001" stop-color="#CA6EEB"/><stop offset="1" stop-color="#B57BF9"/></linearGradient><linearGradient id="prefix__paint1_linear_150_5128" x1="32.293" y1="16.376" x2="38.65" y2="16.376" gradientUnits="userSpaceOnUse"><stop offset=".001" stop-color="#CA6EEB"/><stop offset="1" stop-color="#B57BF9"/></linearGradient><linearGradient id="prefix__paint2_linear_150_5128" x1="32.293" y1="16.376" x2="38.651" y2="16.376" gradientUnits="userSpaceOnUse"><stop offset=".001" stop-color="#CA6EEB"/><stop offset="1" stop-color="#B57BF9"/></linearGradient><linearGradient id="prefix__paint3_linear_150_5128" x1="32.293" y1="16.376" x2="38.65" y2="16.376" gradientUnits="userSpaceOnUse"><stop offset=".001" stop-color="#CA6EEB"/><stop offset="1" stop-color="#B57BF9"/></linearGradient><linearGradient id="prefix__paint4_linear_150_5128" x1="32.293" y1="16.376" x2="38.65" y2="16.376" gradientUnits="userSpaceOnUse"><stop offset=".001" stop-color="#CA6EEB"/><stop offset="1" stop-color="#B57BF9"/></linearGradient><linearGradient id="prefix__paint5_linear_150_5128" x1="32.293" y1="16.376" x2="38.65" y2="16.376" gradientUnits="userSpaceOnUse"><stop offset=".001" stop-color="#CA6EEB"/><stop offset="1" stop-color="#B57BF9"/></linearGradient><linearGradient id="prefix__paint6_linear_150_5128" x1="32.293" y1="16.376" x2="38.651" y2="16.376" gradientUnits="userSpaceOnUse"><stop offset=".001" stop-color="#CA6EEB"/><stop offset="1" stop-color="#B57BF9"/></linearGradient><linearGradient id="prefix__paint7_linear_150_5128" x1="32.293" y1="16.376" x2="38.65" y2="16.376" gradientUnits="userSpaceOnUse"><stop offset=".001" stop-color="#CA6EEB"/><stop offset="1" stop-color="#B57BF9"/></linearGradient><linearGradient id="prefix__paint8_linear_150_5128" x1="32.293" y1="16.376" x2="38.651" y2="16.376" gradientUnits="userSpaceOnUse"><stop offset=".001" stop-color="#CA6EEB"/><stop offset="1" stop-color="#B57BF9"/></linearGradient><linearGradient id="prefix__paint9_linear_150_5128" x1="32.293" y1="16.376" x2="38.65" y2="16.376" gradientUnits="userSpaceOnUse"><stop offset=".001" stop-color="#CA6EEB"/><stop offset="1" stop-color="#B57BF9"/></linearGradient><linearGradient id="prefix__paint10_linear_150_5128" x1="32.293" y1="16.376" x2="38.651" y2="16.376" gradientUnits="userSpaceOnUse"><stop offset=".001" stop-color="#CA6EEB"/><stop offset="1" stop-color="#B57BF9"/></linearGradient><linearGradient id="prefix__paint11_linear_150_5128" x1="32.293" y1="16.376" x2="38.651" y2="16.376" gradientUnits="userSpaceOnUse"><stop offset=".001" stop-color="#CA6EEB"/><stop offset="1" stop-color="#B57BF9"/></linearGradient><linearGradient id="prefix__paint12_linear_150_5128" x1="32.293" y1="16.376" x2="38.651" y2="16.376" gradientUnits="userSpaceOnUse"><stop offset=".001" stop-color="#CA6EEB"/><stop offset="1" stop-color="#B57BF9"/></linearGradient><linearGradient id="prefix__paint13_linear_150_5128" x1="32.293" y1="16.376" x2="38.651" y2="16.376" gradientUnits="userSpaceOnUse"><stop offset=".001" stop-color="#CA6EEB"/><stop offset="1" stop-color="#B57BF9"/></linearGradient><linearGradient id="prefix__paint14_linear_150_5128" x1="32.293" y1="16.376" x2="38.65" y2="16.376" gradientUnits="userSpaceOnUse"><stop offset=".001" stop-color="#CA6EEB"/><stop offset="1" stop-color="#B57BF9"/></linearGradient><linearGradient id="prefix__paint15_linear_150_5128" x1="32.293" y1="16.376" x2="38.65" y2="16.376" gradientUnits="userSpaceOnUse"><stop offset=".001" stop-color="#CA6EEB"/><stop offset="1" stop-color="#B57BF9"/></linearGradient><linearGradient id="prefix__paint16_linear_150_5128" x1="32.293" y1="16.376" x2="38.65" y2="16.376" gradientUnits="userSpaceOnUse"><stop offset=".001" stop-color="#CA6EEB"/><stop offset="1" stop-color="#B57BF9"/></linearGradient><linearGradient id="prefix__paint17_linear_150_5128" x1="32.293" y1="16.376" x2="38.65" y2="16.376" gradientUnits="userSpaceOnUse"><stop offset=".001" stop-color="#CA6EEB"/><stop offset="1" stop-color="#B57BF9"/></linearGradient><linearGradient id="prefix__paint18_linear_150_5128" x1="32.293" y1="16.376" x2="38.651" y2="16.376" gradientUnits="userSpaceOnUse"><stop offset=".001" stop-color="#CA6EEB"/><stop offset="1" stop-color="#B57BF9"/></linearGradient><linearGradient id="prefix__paint19_linear_150_5128" x1="32.293" y1="16.376" x2="38.651" y2="16.376" gradientUnits="userSpaceOnUse"><stop offset=".001" stop-color="#CA6EEB"/><stop offset="1" stop-color="#B57BF9"/></linearGradient><linearGradient id="prefix__paint20_linear_150_5128" x1="32.293" y1="16.376" x2="38.65" y2="16.376" gradientUnits="userSpaceOnUse"><stop offset=".001" stop-color="#CA6EEB"/><stop offset="1" stop-color="#B57BF9"/></linearGradient><linearGradient id="prefix__paint21_linear_150_5128" x1="32.293" y1="16.376" x2="38.65" y2="16.376" gradientUnits="userSpaceOnUse"><stop offset=".001" stop-color="#CA6EEB"/><stop offset="1" stop-color="#B57BF9"/></linearGradient><linearGradient id="prefix__paint22_linear_150_5128" x1="32.293" y1="16.376" x2="38.65" y2="16.376" gradientUnits="userSpaceOnUse"><stop offset=".001" stop-color="#CA6EEB"/><stop offset="1" stop-color="#B57BF9"/></linearGradient><linearGradient id="prefix__paint23_linear_150_5128" x1="32.293" y1="16.376" x2="38.65" y2="16.376" gradientUnits="userSpaceOnUse"><stop offset=".001" stop-color="#CA6EEB"/><stop offset="1" stop-color="#B57BF9"/></linearGradient><linearGradient id="prefix__paint24_linear_150_5128" x1="32.293" y1="16.376" x2="38.651" y2="16.376" gradientUnits="userSpaceOnUse"><stop offset=".001" stop-color="#CA6EEB"/><stop offset="1" stop-color="#B57BF9"/></linearGradient><linearGradient id="prefix__paint25_linear_150_5128" x1="32.293" y1="16.376" x2="38.651" y2="16.376" gradientUnits="userSpaceOnUse"><stop offset=".001" stop-color="#CA6EEB"/><stop offset="1" stop-color="#B57BF9"/></linearGradient><linearGradient id="prefix__paint26_linear_150_5128" x1="20.723" y1="14.641" x2="26.568" y2="13.371" gradientUnits="userSpaceOnUse"><stop offset=".001" stop-color="#CA6EEB"/><stop offset="1" stop-color="#B57BF9"/></linearGradient><linearGradient id="prefix__paint27_linear_150_5128" x1="20.377" y1="13.048" x2="26.222" y2="11.778" gradientUnits="userSpaceOnUse"><stop offset=".001" stop-color="#CA6EEB"/><stop offset="1" stop-color="#B57BF9"/></linearGradient><linearGradient id="prefix__paint28_linear_150_5128" x1="20.547" y1="13.834" x2="26.393" y2="12.564" gradientUnits="userSpaceOnUse"><stop offset=".001" stop-color="#CA6EEB"/><stop offset="1" stop-color="#B57BF9"/></linearGradient><linearGradient id="prefix__paint29_linear_150_5128" x1="20.641" y1="14.266" x2="26.486" y2="12.996" gradientUnits="userSpaceOnUse"><stop offset=".001" stop-color="#CA6EEB"/><stop offset="1" stop-color="#B57BF9"/></linearGradient><linearGradient id="prefix__paint30_linear_150_5128" x1="20.658" y1="14.344" x2="26.503" y2="13.074" gradientUnits="userSpaceOnUse"><stop offset=".001" stop-color="#CA6EEB"/><stop offset="1" stop-color="#B57BF9"/></linearGradient><linearGradient id="prefix__paint31_linear_150_5128" x1="20.675" y1="14.422" x2="26.52" y2="13.153" gradientUnits="userSpaceOnUse"><stop offset=".001" stop-color="#CA6EEB"/><stop offset="1" stop-color="#B57BF9"/></linearGradient><linearGradient id="prefix__paint32_linear_150_5128" x1="20.692" y1="14.501" x2="26.538" y2="13.231" gradientUnits="userSpaceOnUse"><stop offset=".001" stop-color="#CA6EEB"/><stop offset="1" stop-color="#B57BF9"/></linearGradient><linearGradient id="prefix__paint33_linear_150_5128" x1="20.709" y1="14.579" x2="26.554" y2="13.309" gradientUnits="userSpaceOnUse"><stop offset=".001" stop-color="#CA6EEB"/><stop offset="1" stop-color="#B57BF9"/></linearGradient><linearGradient id="prefix__paint34_linear_150_5128" x1="20.726" y1="14.657" x2="26.572" y2="13.387" gradientUnits="userSpaceOnUse"><stop offset=".001" stop-color="#CA6EEB"/><stop offset="1" stop-color="#B57BF9"/></linearGradient><linearGradient id="prefix__paint35_linear_150_5128" x1="20.743" y1="14.735" x2="26.588" y2="13.465" gradientUnits="userSpaceOnUse"><stop offset=".001" stop-color="#CA6EEB"/><stop offset="1" stop-color="#B57BF9"/></linearGradient><linearGradient id="prefix__paint36_linear_150_5128" x1="20.76" y1="14.813" x2="26.605" y2="13.543" gradientUnits="userSpaceOnUse"><stop offset=".001" stop-color="#CA6EEB"/><stop offset="1" stop-color="#B57BF9"/></linearGradient><linearGradient id="prefix__paint37_linear_150_5128" x1="20.777" y1="14.891" x2="26.622" y2="13.622" gradientUnits="userSpaceOnUse"><stop offset=".001" stop-color="#CA6EEB"/><stop offset="1" stop-color="#B57BF9"/></linearGradient><linearGradient id="prefix__paint38_linear_150_5128" x1="20.794" y1="14.97" x2="26.639" y2="13.7" gradientUnits="userSpaceOnUse"><stop offset=".001" stop-color="#CA6EEB"/><stop offset="1" stop-color="#B57BF9"/></linearGradient><linearGradient id="prefix__paint39_linear_150_5128" x1="20.811" y1="15.048" x2="26.657" y2="13.778" gradientUnits="userSpaceOnUse"><stop offset=".001" stop-color="#CA6EEB"/><stop offset="1" stop-color="#B57BF9"/></linearGradient><linearGradient id="prefix__paint40_linear_150_5128" x1="20.828" y1="15.126" x2="26.673" y2="13.856" gradientUnits="userSpaceOnUse"><stop offset=".001" stop-color="#CA6EEB"/><stop offset="1" stop-color="#B57BF9"/></linearGradient><linearGradient id="prefix__paint41_linear_150_5128" x1="20.845" y1="15.204" x2="26.69" y2="13.935" gradientUnits="userSpaceOnUse"><stop offset=".001" stop-color="#CA6EEB"/><stop offset="1" stop-color="#B57BF9"/></linearGradient><linearGradient id="prefix__paint42_linear_150_5128" x1="20.862" y1="15.283" x2="26.707" y2="14.013" gradientUnits="userSpaceOnUse"><stop offset=".001" stop-color="#CA6EEB"/><stop offset="1" stop-color="#B57BF9"/></linearGradient><linearGradient id="prefix__paint43_linear_150_5128" x1="20.879" y1="15.361" x2="26.724" y2="14.091" gradientUnits="userSpaceOnUse"><stop offset=".001" stop-color="#CA6EEB"/><stop offset="1" stop-color="#B57BF9"/></linearGradient><linearGradient id="prefix__paint44_linear_150_5128" x1="20.896" y1="15.439" x2="26.741" y2="14.169" gradientUnits="userSpaceOnUse"><stop offset=".001" stop-color="#CA6EEB"/><stop offset="1" stop-color="#B57BF9"/></linearGradient><linearGradient id="prefix__paint45_linear_150_5128" x1="20.913" y1="15.517" x2="26.758" y2="14.247" gradientUnits="userSpaceOnUse"><stop offset=".001" stop-color="#CA6EEB"/><stop offset="1" stop-color="#B57BF9"/></linearGradient><linearGradient id="prefix__paint46_linear_150_5128" x1="20.93" y1="15.595" x2="26.775" y2="14.325" gradientUnits="userSpaceOnUse"><stop offset=".001" stop-color="#CA6EEB"/><stop offset="1" stop-color="#B57BF9"/></linearGradient><linearGradient id="prefix__paint47_linear_150_5128" x1="20.947" y1="15.674" x2="26.792" y2="14.404" gradientUnits="userSpaceOnUse"><stop offset=".001" stop-color="#CA6EEB"/><stop offset="1" stop-color="#B57BF9"/></linearGradient><linearGradient id="prefix__paint48_linear_150_5128" x1="20.964" y1="15.752" x2="26.809" y2="14.482" gradientUnits="userSpaceOnUse"><stop offset=".001" stop-color="#CA6EEB"/><stop offset="1" stop-color="#B57BF9"/></linearGradient><linearGradient id="prefix__paint49_linear_150_5128" x1="20.981" y1="15.83" x2="26.826" y2="14.56" gradientUnits="userSpaceOnUse"><stop offset=".001" stop-color="#CA6EEB"/><stop offset="1" stop-color="#B57BF9"/></linearGradient><linearGradient id="prefix__paint50_linear_150_5128" x1="20.998" y1="15.908" x2="26.843" y2="14.638" gradientUnits="userSpaceOnUse"><stop offset=".001" stop-color="#CA6EEB"/><stop offset="1" stop-color="#B57BF9"/></linearGradient><linearGradient id="prefix__paint51_linear_150_5128" x1="21.012" y1="15.973" x2="26.857" y2="14.703" gradientUnits="userSpaceOnUse"><stop offset=".001" stop-color="#CA6EEB"/><stop offset="1" stop-color="#B57BF9"/></linearGradient><linearGradient id="prefix__paint52_linear_150_5128" x1="12.708" y1="23.594" x2="16.604" y2="23.594" gradientUnits="userSpaceOnUse"><stop offset=".001" stop-color="#CA6EEB"/><stop offset="1" stop-color="#B57BF9"/></linearGradient><linearGradient id="prefix__paint53_linear_150_5128" x1="12.708" y1="23.501" x2="16.605" y2="23.501" gradientUnits="userSpaceOnUse"><stop offset=".001" stop-color="#CA6EEB"/><stop offset="1" stop-color="#B57BF9"/></linearGradient><linearGradient id="prefix__paint54_linear_150_5128" x1="12.708" y1="23.501" x2="16.604" y2="23.501" gradientUnits="userSpaceOnUse"><stop offset=".001" stop-color="#CA6EEB"/><stop offset="1" stop-color="#B57BF9"/></linearGradient><linearGradient id="prefix__paint55_linear_150_5128" x1="12.708" y1="23.501" x2="16.604" y2="23.501" gradientUnits="userSpaceOnUse"><stop offset=".001" stop-color="#CA6EEB"/><stop offset="1" stop-color="#B57BF9"/></linearGradient><linearGradient id="prefix__paint56_linear_150_5128" x1="12.708" y1="23.501" x2="16.604" y2="23.501" gradientUnits="userSpaceOnUse"><stop offset=".001" stop-color="#CA6EEB"/><stop offset="1" stop-color="#B57BF9"/></linearGradient><linearGradient id="prefix__paint57_linear_150_5128" x1="12.708" y1="23.501" x2="16.604" y2="23.501" gradientUnits="userSpaceOnUse"><stop offset=".001" stop-color="#CA6EEB"/><stop offset="1" stop-color="#B57BF9"/></linearGradient><linearGradient id="prefix__paint58_linear_150_5128" x1="12.707" y1="23.501" x2="16.604" y2="23.501" gradientUnits="userSpaceOnUse"><stop offset=".001" stop-color="#CA6EEB"/><stop offset="1" stop-color="#B57BF9"/></linearGradient><linearGradient id="prefix__paint59_linear_150_5128" x1="12.708" y1="23.501" x2="16.604" y2="23.501" gradientUnits="userSpaceOnUse"><stop offset=".001" stop-color="#CA6EEB"/><stop offset="1" stop-color="#B57BF9"/></linearGradient><linearGradient id="prefix__paint60_linear_150_5128" x1="12.707" y1="23.501" x2="16.604" y2="23.501" gradientUnits="userSpaceOnUse"><stop offset=".001" stop-color="#CA6EEB"/><stop offset="1" stop-color="#B57BF9"/></linearGradient><linearGradient id="prefix__paint61_linear_150_5128" x1="12.708" y1="23.501" x2="16.604" y2="23.501" gradientUnits="userSpaceOnUse"><stop offset=".001" stop-color="#CA6EEB"/><stop offset="1" stop-color="#B57BF9"/></linearGradient><linearGradient id="prefix__paint62_linear_150_5128" x1="12.708" y1="23.501" x2="16.604" y2="23.501" gradientUnits="userSpaceOnUse"><stop offset=".001" stop-color="#CA6EEB"/><stop offset="1" stop-color="#B57BF9"/></linearGradient><linearGradient id="prefix__paint63_linear_150_5128" x1="12.708" y1="23.501" x2="16.604" y2="23.501" gradientUnits="userSpaceOnUse"><stop offset=".001" stop-color="#CA6EEB"/><stop offset="1" stop-color="#B57BF9"/></linearGradient><linearGradient id="prefix__paint64_linear_150_5128" x1="12.708" y1="23.501" x2="16.604" y2="23.501" gradientUnits="userSpaceOnUse"><stop offset=".001" stop-color="#CA6EEB"/><stop offset="1" stop-color="#B57BF9"/></linearGradient><linearGradient id="prefix__paint65_linear_150_5128" x1="12.708" y1="23.501" x2="16.604" y2="23.501" gradientUnits="userSpaceOnUse"><stop offset=".001" stop-color="#CA6EEB"/><stop offset="1" stop-color="#B57BF9"/></linearGradient><linearGradient id="prefix__paint66_linear_150_5128" x1="12.708" y1="23.501" x2="16.604" y2="23.501" gradientUnits="userSpaceOnUse"><stop offset=".001" stop-color="#CA6EEB"/><stop offset="1" stop-color="#B57BF9"/></linearGradient><linearGradient id="prefix__paint67_linear_150_5128" x1="12.708" y1="23.501" x2="16.604" y2="23.501" gradientUnits="userSpaceOnUse"><stop offset=".001" stop-color="#CA6EEB"/><stop offset="1" stop-color="#B57BF9"/></linearGradient><linearGradient id="prefix__paint68_linear_150_5128" x1="12.708" y1="23.501" x2="16.604" y2="23.501" gradientUnits="userSpaceOnUse"><stop offset=".001" stop-color="#CA6EEB"/><stop offset="1" stop-color="#B57BF9"/></linearGradient><linearGradient id="prefix__paint69_linear_150_5128" x1="12.708" y1="23.501" x2="16.604" y2="23.501" gradientUnits="userSpaceOnUse"><stop offset=".001" stop-color="#CA6EEB"/><stop offset="1" stop-color="#B57BF9"/></linearGradient><linearGradient id="prefix__paint70_linear_150_5128" x1="12.707" y1="23.501" x2="16.604" y2="23.501" gradientUnits="userSpaceOnUse"><stop offset=".001" stop-color="#CA6EEB"/><stop offset="1" stop-color="#B57BF9"/></linearGradient><linearGradient id="prefix__paint71_linear_150_5128" x1="12.708" y1="23.501" x2="16.604" y2="23.501" gradientUnits="userSpaceOnUse"><stop offset=".001" stop-color="#CA6EEB"/><stop offset="1" stop-color="#B57BF9"/></linearGradient><linearGradient id="prefix__paint72_linear_150_5128" x1="12.708" y1="23.501" x2="16.604" y2="23.501" gradientUnits="userSpaceOnUse"><stop offset=".001" stop-color="#CA6EEB"/><stop offset="1" stop-color="#B57BF9"/></linearGradient><linearGradient id="prefix__paint73_linear_150_5128" x1="12.708" y1="23.501" x2="16.604" y2="23.501" gradientUnits="userSpaceOnUse"><stop offset=".001" stop-color="#CA6EEB"/><stop offset="1" stop-color="#B57BF9"/></linearGradient><linearGradient id="prefix__paint74_linear_150_5128" x1="12.708" y1="23.501" x2="16.604" y2="23.501" gradientUnits="userSpaceOnUse"><stop offset=".001" stop-color="#CA6EEB"/><stop offset="1" stop-color="#B57BF9"/></linearGradient><linearGradient id="prefix__paint75_linear_150_5128" x1="12.708" y1="23.501" x2="16.604" y2="23.501" gradientUnits="userSpaceOnUse"><stop offset=".001" stop-color="#CA6EEB"/><stop offset="1" stop-color="#B57BF9"/></linearGradient><linearGradient id="prefix__paint76_linear_150_5128" x1="12.708" y1="23.501" x2="16.605" y2="23.501" gradientUnits="userSpaceOnUse"><stop offset=".001" stop-color="#CA6EEB"/><stop offset="1" stop-color="#B57BF9"/></linearGradient><linearGradient id="prefix__paint77_linear_150_5128" x1="12.708" y1="23.501" x2="16.604" y2="23.501" gradientUnits="userSpaceOnUse"><stop offset=".001" stop-color="#CA6EEB"/><stop offset="1" stop-color="#B57BF9"/></linearGradient><linearGradient id="prefix__paint78_linear_150_5128" x1="12.708" y1="23.501" x2="16.604" y2="23.501" gradientUnits="userSpaceOnUse"><stop offset=".001" stop-color="#CA6EEB"/><stop offset="1" stop-color="#B57BF9"/></linearGradient><linearGradient id="prefix__paint79_linear_150_5128" x1="38.762" y1="27.662" x2="48.084" y2="23.062" gradientUnits="userSpaceOnUse"><stop stop-color="#CA6EEB"/><stop offset="1" stop-color="#B57BF9"/></linearGradient><linearGradient id="prefix__paint80_linear_150_5128" x1="37.558" y1="25.221" x2="46.879" y2="20.621" gradientUnits="userSpaceOnUse"><stop stop-color="#CA6EEB"/><stop offset="1" stop-color="#B57BF9"/></linearGradient><linearGradient id="prefix__paint81_linear_150_5128" x1="38.157" y1="26.435" x2="47.478" y2="21.835" gradientUnits="userSpaceOnUse"><stop stop-color="#CA6EEB"/><stop offset="1" stop-color="#B57BF9"/></linearGradient><linearGradient id="prefix__paint82_linear_150_5128" x1="38.486" y1="27.102" x2="47.808" y2="22.503" gradientUnits="userSpaceOnUse"><stop stop-color="#CA6EEB"/><stop offset="1" stop-color="#B57BF9"/></linearGradient><linearGradient id="prefix__paint83_linear_150_5128" x1="38.546" y1="27.223" x2="47.867" y2="22.624" gradientUnits="userSpaceOnUse"><stop stop-color="#CA6EEB"/><stop offset="1" stop-color="#B57BF9"/></linearGradient><linearGradient id="prefix__paint84_linear_150_5128" x1="38.605" y1="27.344" x2="47.927" y2="22.744" gradientUnits="userSpaceOnUse"><stop stop-color="#CA6EEB"/><stop offset="1" stop-color="#B57BF9"/></linearGradient><linearGradient id="prefix__paint85_linear_150_5128" x1="38.665" y1="27.465" x2="47.987" y2="22.865" gradientUnits="userSpaceOnUse"><stop stop-color="#CA6EEB"/><stop offset="1" stop-color="#B57BF9"/></linearGradient><linearGradient id="prefix__paint86_linear_150_5128" x1="38.724" y1="27.586" x2="48.046" y2="22.986" gradientUnits="userSpaceOnUse"><stop stop-color="#CA6EEB"/><stop offset="1" stop-color="#B57BF9"/></linearGradient><linearGradient id="prefix__paint87_linear_150_5128" x1="38.784" y1="27.707" x2="48.106" y2="23.107" gradientUnits="userSpaceOnUse"><stop stop-color="#CA6EEB"/><stop offset="1" stop-color="#B57BF9"/></linearGradient><linearGradient id="prefix__paint88_linear_150_5128" x1="38.844" y1="27.828" x2="48.165" y2="23.228" gradientUnits="userSpaceOnUse"><stop stop-color="#CA6EEB"/><stop offset="1" stop-color="#B57BF9"/></linearGradient><linearGradient id="prefix__paint89_linear_150_5128" x1="38.903" y1="27.949" x2="48.225" y2="23.349" gradientUnits="userSpaceOnUse"><stop stop-color="#CA6EEB"/><stop offset="1" stop-color="#B57BF9"/></linearGradient><linearGradient id="prefix__paint90_linear_150_5128" x1="38.963" y1="28.069" x2="48.285" y2="23.47" gradientUnits="userSpaceOnUse"><stop stop-color="#CA6EEB"/><stop offset="1" stop-color="#B57BF9"/></linearGradient><linearGradient id="prefix__paint91_linear_150_5128" x1="39.023" y1="28.19" x2="48.345" y2="23.59" gradientUnits="userSpaceOnUse"><stop stop-color="#CA6EEB"/><stop offset="1" stop-color="#B57BF9"/></linearGradient><linearGradient id="prefix__paint92_linear_150_5128" x1="39.082" y1="28.311" x2="48.404" y2="23.711" gradientUnits="userSpaceOnUse"><stop stop-color="#CA6EEB"/><stop offset="1" stop-color="#B57BF9"/></linearGradient><linearGradient id="prefix__paint93_linear_150_5128" x1="39.142" y1="28.432" x2="48.464" y2="23.832" gradientUnits="userSpaceOnUse"><stop stop-color="#CA6EEB"/><stop offset="1" stop-color="#B57BF9"/></linearGradient><linearGradient id="prefix__paint94_linear_150_5128" x1="39.202" y1="28.553" x2="48.523" y2="23.953" gradientUnits="userSpaceOnUse"><stop stop-color="#CA6EEB"/><stop offset="1" stop-color="#B57BF9"/></linearGradient><linearGradient id="prefix__paint95_linear_150_5128" x1="39.261" y1="28.674" x2="48.583" y2="24.074" gradientUnits="userSpaceOnUse"><stop stop-color="#CA6EEB"/><stop offset="1" stop-color="#B57BF9"/></linearGradient><linearGradient id="prefix__paint96_linear_150_5128" x1="39.321" y1="28.794" x2="48.642" y2="24.194" gradientUnits="userSpaceOnUse"><stop stop-color="#CA6EEB"/><stop offset="1" stop-color="#B57BF9"/></linearGradient><linearGradient id="prefix__paint97_linear_150_5128" x1="39.38" y1="28.915" x2="48.702" y2="24.315" gradientUnits="userSpaceOnUse"><stop stop-color="#CA6EEB"/><stop offset="1" stop-color="#B57BF9"/></linearGradient><linearGradient id="prefix__paint98_linear_150_5128" x1="39.441" y1="29.036" x2="48.762" y2="24.436" gradientUnits="userSpaceOnUse"><stop stop-color="#CA6EEB"/><stop offset="1" stop-color="#B57BF9"/></linearGradient><linearGradient id="prefix__paint99_linear_150_5128" x1="39.5" y1="29.157" x2="48.822" y2="24.557" gradientUnits="userSpaceOnUse"><stop stop-color="#CA6EEB"/><stop offset="1" stop-color="#B57BF9"/></linearGradient><linearGradient id="prefix__paint100_linear_150_5128" x1="39.559" y1="29.278" x2="48.881" y2="24.678" gradientUnits="userSpaceOnUse"><stop stop-color="#CA6EEB"/><stop offset="1" stop-color="#B57BF9"/></linearGradient><linearGradient id="prefix__paint101_linear_150_5128" x1="39.619" y1="29.399" x2="48.941" y2="24.799" gradientUnits="userSpaceOnUse"><stop stop-color="#CA6EEB"/><stop offset="1" stop-color="#B57BF9"/></linearGradient><linearGradient id="prefix__paint102_linear_150_5128" x1="39.679" y1="29.52" x2="49" y2="24.92" gradientUnits="userSpaceOnUse"><stop stop-color="#CA6EEB"/><stop offset="1" stop-color="#B57BF9"/></linearGradient><linearGradient id="prefix__paint103_linear_150_5128" x1="39.738" y1="29.64" x2="49.06" y2="25.041" gradientUnits="userSpaceOnUse"><stop stop-color="#CA6EEB"/><stop offset="1" stop-color="#B57BF9"/></linearGradient><linearGradient id="prefix__paint104_linear_150_5128" x1="39.82" y1="29.806" x2="49.142" y2="25.206" gradientUnits="userSpaceOnUse"><stop stop-color="#CA6EEB"/><stop offset="1" stop-color="#B57BF9"/></linearGradient></defs></svg>