<svg width="76" height="73" viewBox="0 0 76 73" fill="none" xmlns="http://www.w3.org/2000/svg">
<path d="M30.8704 43.9294C32.788 42.0897 35.3426 41.0624 38 41.0624C40.6575 41.0624 43.2121 42.0897 45.1297 43.9294" stroke="#222222" stroke-width="3" stroke-linecap="round" stroke-linejoin="round"/>
<path d="M23.9844 37.0233C27.7329 33.3656 32.7627 31.3182 38 31.3182C43.2373 31.3182 48.2671 33.3656 52.0156 37.0233" stroke="#222222" stroke-width="3" stroke-linecap="round" stroke-linejoin="round"/>
<path d="M17.0984 30.1373C22.6698 24.6469 30.1778 21.5691 38 21.5691C45.8221 21.5691 53.3301 24.6469 58.9015 30.1373" stroke="#222222" stroke-width="3" stroke-linecap="round" stroke-linejoin="round"/>
<path d="M38 54.0654C39.7949 54.0654 41.25 52.6104 41.25 50.8154C41.25 49.0205 39.7949 47.5654 38 47.5654C36.2051 47.5654 34.75 49.0205 34.75 50.8154C34.75 52.6104 36.2051 54.0654 38 54.0654Z" fill="#222222"/>
<rect x="1.5" y="1.5" width="73" height="69.381" rx="8.5" stroke="#222222" stroke-width="3"/>
</svg>
