<svg width="76" height="73" viewBox="0 0 76 73" fill="none" xmlns="http://www.w3.org/2000/svg">
<path d="M38.0352 60.6905C32.7954 60.6905 27.7457 58.5134 23.8905 54.6065C23.2661 53.9802 22.5602 53.2943 23.2933 52.3697C24.0806 51.4154 24.705 52.1908 25.3294 52.8171C32.4425 60.1238 43.4922 60.1537 50.6052 52.8469C51.2025 52.2504 51.8269 51.3856 52.6414 52.3399C53.5102 53.3837 52.6142 54.0398 51.9898 54.6661C48.2161 58.5432 43.2207 60.6905 38.0352 60.6905Z" fill="#222222"/>
<path d="M37.1936 54.4573C33.6914 54.3081 30.3521 52.7871 27.8272 50.1627C27.2571 49.596 26.5512 48.9995 27.2571 48.075C28.0173 47.061 28.6417 47.8066 29.2933 48.4031C34.6416 53.4134 41.3746 53.3836 46.8044 48.3434C47.4017 47.7768 47.9718 47.1207 48.732 48.0154C49.4922 48.8802 48.8677 49.5364 48.2976 50.103C45.3655 52.9959 41.9447 54.4573 37.1936 54.4573Z" fill="#222222"/>
<path d="M41.9175 37.8159C41.9447 40.1719 40.2343 42.1403 38.0895 42.1701C35.9447 42.1999 34.1529 40.321 34.1257 37.965C34.1257 37.9053 34.1257 37.8457 34.1257 37.786C34.18 35.43 35.9719 33.5511 38.1166 33.6108C40.2071 33.6704 41.8904 35.5195 41.9175 37.8159Z" fill="#222222"/>
<path d="M38.0081 48.3136C35.7004 48.3136 33.5013 47.3891 31.7638 45.719C31.1665 45.1523 30.5692 44.526 31.2751 43.6313C31.8995 42.8858 32.4968 43.3033 33.0941 43.8103C36.4334 46.6733 39.5284 46.6435 42.9764 43.7506C43.6008 43.2138 44.2252 42.8858 44.7953 43.6612C45.4198 44.4664 44.9039 45.0927 44.3338 45.6295C42.5963 47.3891 40.3429 48.3136 38.0081 48.3136Z" fill="#222222"/>
<path d="M33.6205 31.2813C30.9965 33.2923 30.0955 36.2955 30.688 39.6763C29.7963 39.9997 29.0071 40.4462 28.4156 41.172C27.8052 41.9209 27.5203 42.8274 27.3727 43.8202C25.9543 44.0742 24.6974 44.9722 23.9519 46.3154C21.1926 46.5418 18.8802 45.9605 17.1568 44.7449C15.3765 43.4892 14.0708 41.4495 13.5927 38.5204C12.8764 32.8151 16.3573 27.7094 21.2278 26.6952C21.8283 26.5777 22.6982 26.383 23.3469 25.7117C24.0282 25.0068 24.2026 24.0716 24.2483 23.1844L24.2485 23.1802C24.5497 16.9953 30.9105 13.6934 35.5323 16.6401C36.7177 17.7658 38.519 17.6166 39.5788 16.4524C39.6539 16.3699 39.713 16.2899 39.747 16.2415C41.33 14.63 42.9795 13.6938 44.6432 13.3472C46.3203 12.9977 48.1404 13.22 50.101 14.145L50.1354 14.1612L50.1707 14.1757C53.7294 15.6385 56.1401 19.5138 56.0025 23.8753C55.8998 25.7337 56.7714 27.5387 58.3351 28.5082C61.2911 30.5839 62.9455 34.4682 62.3955 38.4081L62.3926 38.4293L62.3902 38.4507C61.9916 42.0567 60.0547 44.4149 56.9655 45.736L56.9591 45.7388C56.2281 46.0555 55.4459 46.1801 54.5457 46.2206C54.0924 46.241 53.6286 46.2396 53.1264 46.2359C53.0842 46.2356 53.0416 46.2353 52.9988 46.2349C52.6833 46.2325 52.3517 46.2299 52.0145 46.2334C51.2853 44.9103 50.0201 43.998 48.5536 43.8198C48.3735 42.7013 48.0583 41.6791 47.3199 40.8943C46.7615 40.3008 46.059 39.9481 45.2934 39.7082C45.5565 38.2579 45.5513 36.8783 45.2373 35.5997C44.8177 33.8908 43.869 32.4595 42.4661 31.3535L42.4634 31.3514C39.8391 29.2922 36.289 29.2518 33.625 31.2779L33.6205 31.2813ZM39.7848 16.1866C39.7848 16.1867 39.7836 16.1884 39.7814 16.1914C39.7838 16.188 39.7849 16.1865 39.7848 16.1866Z" stroke="#222222" stroke-width="3"/>
<path d="M38.0352 60.6905C32.7954 60.6905 27.7457 58.5134 23.8905 54.6065C23.2661 53.9802 22.5602 53.2943 23.2933 52.3697C24.0806 51.4154 24.705 52.1908 25.3294 52.8171C32.4425 60.1238 43.4922 60.1537 50.6052 52.8469C51.2025 52.2504 51.8269 51.3856 52.6414 52.3399C53.5102 53.3837 52.6142 54.0398 51.9898 54.6661C48.2161 58.5432 43.2207 60.6905 38.0352 60.6905Z" stroke="#222222"/>
<path d="M37.1936 54.4573C33.6914 54.3081 30.3521 52.7871 27.8272 50.1627C27.2571 49.596 26.5512 48.9995 27.2571 48.075C28.0173 47.061 28.6417 47.8066 29.2933 48.4031C34.6416 53.4134 41.3746 53.3836 46.8044 48.3434C47.4017 47.7768 47.9718 47.1207 48.732 48.0154C49.4922 48.8802 48.8677 49.5364 48.2976 50.103C45.3655 52.9959 41.9447 54.4573 37.1936 54.4573Z" stroke="#222222"/>
<path d="M41.9175 37.8159C41.9447 40.1719 40.2343 42.1403 38.0895 42.1701C35.9447 42.1999 34.1529 40.321 34.1257 37.965C34.1257 37.9053 34.1257 37.8457 34.1257 37.786C34.18 35.43 35.9719 33.5511 38.1166 33.6108C40.2071 33.6704 41.8904 35.5195 41.9175 37.8159Z" stroke="#222222"/>
<path d="M38.0081 48.3136C35.7004 48.3136 33.5013 47.3891 31.7638 45.719C31.1665 45.1523 30.5692 44.526 31.2751 43.6313C31.8995 42.8858 32.4968 43.3033 33.0941 43.8103C36.4334 46.6733 39.5284 46.6435 42.9764 43.7506C43.6008 43.2138 44.2252 42.8858 44.7953 43.6612C45.4198 44.4664 44.9039 45.0927 44.3338 45.6295C42.5963 47.3891 40.3429 48.3136 38.0081 48.3136Z" stroke="#222222"/>
<rect x="1.5" y="1.5" width="73" height="69.381" rx="8.5" stroke="#222222" stroke-width="3"/>
</svg>
