<svg width="38" height="38" viewBox="0 0 38 38" fill="none" xmlns="http://www.w3.org/2000/svg">
<path d="M0.0571289 12.7267C0.0571289 8.22498 0.0571289 5.97413 0.947099 4.26087C1.69707 2.81712 2.87425 1.63994 4.318 0.88997C6.03126 0 8.28211 0 12.7838 0H25.2733C29.775 0 32.0259 0 33.7391 0.88997C35.1829 1.63994 36.3601 2.81712 37.11 4.26087C38 5.97413 38 8.22498 38 12.7267V25.2162C38 29.7179 38 31.9687 37.11 33.682C36.3601 35.1257 35.1829 36.3029 33.7391 37.0529C32.0259 37.9429 29.775 37.9429 25.2733 37.9429H12.7838C8.28211 37.9429 6.03126 37.9429 4.318 37.0529C2.87425 36.3029 1.69707 35.1257 0.947099 33.682C0.0571289 31.9687 0.0571289 29.7179 0.0571289 25.2162V12.7267Z" fill="#1265BF"/>
<path d="M8.57352 11.7833C10.3914 11.7833 11.8651 10.3096 11.8651 8.49173C11.8651 6.67387 10.3914 5.2002 8.57352 5.2002C6.75565 5.2002 5.28198 6.67387 5.28198 8.49173C5.28198 10.3096 6.75565 11.7833 8.57352 11.7833Z" fill="#F4F4F4"/>
<path d="M14.8795 14.2158H20.3347V16.7148C20.3347 16.7148 21.815 13.7542 25.8427 13.7542C29.4357 13.7542 32.412 15.5241 32.412 20.9191V32.2956H26.759V22.2977C26.759 19.1151 25.0599 18.7651 23.7652 18.7651C21.0782 18.7651 20.6182 21.0828 20.6182 22.7128V32.2956H14.8795V14.2158Z" fill="#F4F4F4"/>
<path d="M5.70421 14.2158H11.4428V32.2956H5.70421V14.2158Z" fill="#F4F4F4"/>
</svg>
