<svg width="49" height="49" viewBox="0 0 49 49" fill="none" xmlns="http://www.w3.org/2000/svg">
<path d="M42.4922 30.3188L33.5152 26.4907C33.052 26.2831 32.5436 26.197 32.0379 26.2405C31.5322 26.2841 31.0459 26.4558 30.625 26.7395L25.8207 29.936C22.8927 28.5139 20.522 26.1567 19.0832 23.2368L22.2605 18.3751C22.5424 17.9537 22.7145 17.4687 22.7613 16.9639C22.8081 16.4592 22.7281 15.9508 22.5285 15.4848L18.6813 6.50787C18.4128 5.90172 17.9582 5.39683 17.3835 5.06644C16.8087 4.73604 16.1437 4.59732 15.4848 4.67037C12.9 5.00898 10.5261 6.27469 8.80454 8.23217C7.08294 10.1897 6.13075 12.7057 6.125 15.3126C6.125 30.5102 18.4898 42.8751 33.6875 42.8751C36.2943 42.8693 38.8104 41.9171 40.7679 40.1955C42.7254 38.4739 43.9911 36.1001 44.3297 33.5153C44.4027 32.8564 44.264 32.1913 43.9336 31.6166C43.6032 31.0418 43.0983 30.5873 42.4922 30.3188Z" fill="black"/>
</svg>
