<svg width="77" height="73" viewBox="0 0 77 73" fill="none" xmlns="http://www.w3.org/2000/svg">
<path d="M20.625 33.4889V21.5654C20.625 21.1345 20.7962 20.7211 21.101 20.4164C21.4057 20.1116 21.819 19.9404 22.25 19.9404H54.75C55.181 19.9404 55.5943 20.1116 55.899 20.4164C56.2038 20.7211 56.375 21.1345 56.375 21.5654V33.4889C56.375 50.5514 41.8922 56.1982 39.0078 57.1529C38.6801 57.2743 38.3199 57.2743 37.9922 57.1529C35.1078 56.1982 20.625 50.5514 20.625 33.4889Z" stroke="#222222" stroke-width="2" stroke-linecap="round" stroke-linejoin="round"/>
<path d="M47.4375 31.3154L35.5141 42.6904L29.5625 37.0029" stroke="#222222" stroke-width="2" stroke-linecap="round" stroke-linejoin="round"/>
<rect x="2" y="1.5" width="73" height="69.381" rx="8.5" stroke="#222222" stroke-width="3"/>
</svg>
