<svg width="390" height="2115" viewBox="0 0 390 2115" fill="none" xmlns="http://www.w3.org/2000/svg">
<path fill-rule="evenodd" clip-rule="evenodd" d="M291.944 1581.74C318.459 1579.44 351.537 1575.48 361.814 1599.95C373.73 1628.31 359.046 1662.54 332.416 1678.08C310.827 1690.67 287.977 1670.3 268.926 1654.14C255.437 1642.7 246.192 1626.31 251.541 1609.49C257.003 1592.31 273.928 1583.29 291.944 1581.74Z" fill="#DEDEDE" fill-opacity="0.5"/>
<path fill-rule="evenodd" clip-rule="evenodd" d="M93.843 1301.2C95.3724 1319.03 98.013 1341.28 81.7031 1348.19C62.7923 1356.2 39.9726 1346.32 29.6145 1328.42C21.2176 1313.9 34.802 1298.54 45.5736 1285.73C53.2003 1276.66 64.1246 1270.44 75.3423 1274.04C86.795 1277.71 92.8038 1289.09 93.843 1301.2Z" fill="#DEDEDE" fill-opacity="0.5"/>
<path d="M249.295 849.443C275.458 891.421 316.639 882.444 343.101 867.48C369.564 852.517 371.688 806.806 352.103 775.383C332.518 743.96 237.547 716.57 211.085 731.533C184.623 746.496 221.856 805.417 249.295 849.443Z" fill="#DEDEDE" fill-opacity="0.5"/>
<path fill-rule="evenodd" clip-rule="evenodd" d="M-2.09621 1520.19C26.8711 1522.26 42.3974 1547.15 61.4203 1566.09C82.1649 1586.75 117.457 1605.25 109.977 1631.8C102.518 1658.28 61.8696 1661.9 31.9515 1670.69C8.37551 1677.62 -15.3631 1682.68 -38.8516 1675.54C-66.4441 1667.14 -94.6794 1653.78 -103.062 1629.61C-111.944 1604.01 -99.6274 1576.89 -80.3281 1555.97C-60.9946 1535.02 -33.049 1517.98 -2.09621 1520.19Z" fill="#DEDEDE" fill-opacity="0.4"/>
<path fill-rule="evenodd" clip-rule="evenodd" d="M299.589 1212.68C355.591 1207.82 425.454 1199.43 447.16 1251.24C472.327 1311.31 441.313 1383.79 385.068 1416.69C339.471 1443.37 291.209 1400.22 250.973 1366C222.484 1341.78 202.957 1307.07 214.256 1271.44C225.791 1235.06 261.538 1215.98 299.589 1212.68Z" fill="#DEDEDE" fill-opacity="0.5"/>
<path fill-rule="evenodd" clip-rule="evenodd" d="M109.608 974.199C82.107 957.286 69.0175 916.149 30.8241 926.497C-13.9876 938.639 -63.176 978.435 -85.4873 1027.06C-106.866 1073.65 -83.5545 1109.38 -69.9438 1146.11C-56.4017 1182.65 -52.2646 1243.81 -9.52259 1232.04C34.0467 1220.04 38.392 1143.68 75.7713 1105.98C112.494 1068.94 181.91 1073.71 193.95 1026.82C205.56 981.602 139.315 992.468 109.608 974.199Z" fill="#DEDEDE" fill-opacity="0.5"/>
<path fill-rule="evenodd" clip-rule="evenodd" d="M485.802 65.4577C437.307 45.4959 404.646 -23.827 347.093 9.62786C279.568 48.8799 213.11 139.82 191.818 236.349C171.415 328.843 218.716 384.446 250.926 445.593C282.974 506.431 307.239 615.41 371.591 577.625C437.187 539.108 421.968 399.369 470.311 316.776C517.805 235.633 629.231 217.457 634.743 128.032C640.058 41.8006 538.186 87.0206 485.802 65.4577Z" fill="url(#paint0_linear_0_1)"/>
<g filter="url(#filter0_b_0_1)">
<path d="M328.132 333.759C292.955 473.172 166.659 502.026 100.061 483.076C33.4638 464.126 -105.827 360.042 -79.4945 255.683C-53.162 151.323 237.208 -12.9144 303.806 6.03535C370.403 24.9851 365.025 187.546 328.132 333.759Z" fill="url(#paint1_linear_0_1)"/>
</g>
<path d="M363.318 445.333C381.494 458.538 402.656 472.614 431.135 488.697C479.073 515.77 561.643 552.687 588.065 496.272C624.415 418.654 539.449 387.674 549.093 325.547C558.449 265.272 643.252 260.299 629.125 198.697C620.972 163.142 527.824 146.144 470.5 153.504C410.369 161.225 287.802 186.737 236.341 233.308C205.717 261.022 196.303 279.712 227.793 325.937C250.511 359.287 347.412 433.778 363.318 445.333Z" fill="url(#paint2_linear_0_1)"/>
<defs>
<filter id="filter0_b_0_1" x="-92.7659" y="-5.47034" width="457.873" height="503.768" filterUnits="userSpaceOnUse" color-interpolation-filters="sRGB">
<feFlood flood-opacity="0" result="BackgroundImageFix"/>
<feGaussianBlur in="BackgroundImageFix" stdDeviation="5"/>
<feComposite in2="SourceAlpha" operator="in" result="effect1_backgroundBlur_0_1"/>
<feBlend mode="normal" in="SourceGraphic" in2="effect1_backgroundBlur_0_1" result="shape"/>
</filter>
<linearGradient id="paint0_linear_0_1" x1="481.737" y1="17.6463" x2="236.515" y2="537.343" gradientUnits="userSpaceOnUse">
<stop stop-color="#D3DCFE"/>
<stop offset="1" stop-color="#DDE3FF"/>
</linearGradient>
<linearGradient id="paint1_linear_0_1" x1="89.043" y1="449.876" x2="357.479" y2="182.365" gradientUnits="userSpaceOnUse">
<stop stop-color="#C57AFF"/>
<stop offset="0.576042" stop-color="#CA6EEB"/>
<stop offset="1" stop-color="#B37CFA"/>
</linearGradient>
<linearGradient id="paint2_linear_0_1" x1="206.607" y1="288.019" x2="613.865" y2="345.347" gradientUnits="userSpaceOnUse">
<stop offset="0.45625" stop-color="#6263E3"/>
<stop offset="1" stop-color="#8E8FF2"/>
</linearGradient>
</defs>
</svg>
