<svg width="1440" height="3254" viewBox="0 0 1440 3254" fill="none" xmlns="http://www.w3.org/2000/svg">
<path fill-rule="evenodd" clip-rule="evenodd" d="M75.909 2973.34C126.902 2976.99 154.234 3020.97 187.721 3054.45C224.24 3090.96 286.366 3123.66 273.199 3170.58C260.068 3217.37 188.512 3223.78 135.846 3239.32C94.3431 3251.56 52.5543 3260.51 11.206 3247.88C-37.367 3233.05 -87.0716 3209.43 -101.828 3166.72C-117.464 3121.47 -95.7818 3073.54 -61.808 3036.58C-27.774 2999.55 21.4207 2969.44 75.909 2973.34Z" fill="#DEDEDE" fill-opacity="0.4"/>
<path d="M35.1507 1289.74C166.647 1105.61 337.029 1166.32 442.031 1248.27C547.034 1330.22 533.758 1544.68 435.325 1682.52C336.891 1820.35 -79.4928 1904.96 -184.495 1823.01C-289.498 1741.06 -102.761 1482.85 35.1507 1289.74Z" fill="#E3E1E4" fill-opacity="0.5"/>
<path d="M195.489 2179.93C-0.583099 2282.85 25.8743 2469.68 83.9251 2592.77C141.976 2715.87 345.357 2740.47 492.13 2663.43C638.903 2586.39 792.604 2171.43 734.553 2048.34C676.502 1925.24 401.126 2071.99 195.489 2179.93Z" fill="#DEDEDE" fill-opacity="0.5"/>
<path fill-rule="evenodd" clip-rule="evenodd" d="M1076.71 98.5681C977.955 57.9171 911.443 -83.2545 794.241 -15.1258C656.73 64.8084 521.394 250.003 478.033 446.576C436.484 634.935 532.81 748.166 598.404 872.688C663.667 996.582 713.082 1218.51 844.129 1141.56C977.712 1063.13 946.719 778.557 1045.17 610.361C1141.88 445.119 1368.8 408.105 1380.02 225.997C1390.85 50.3918 1183.39 142.479 1076.71 98.5681Z" fill="url(#paint0_linear_120_161)"/>
<path fill-rule="evenodd" clip-rule="evenodd" d="M1692.49 2148.14C1750.28 2054.77 1890.32 2010.67 1855.5 1880.67C1814.65 1728.15 1679.8 1560.46 1514.65 1484.1C1356.4 1410.93 1234.65 1489.85 1109.61 1535.78C985.2 1581.47 777.16 1594.93 816.773 1740.41C857.152 1888.71 1116.81 1904.25 1244.66 2031.75C1370.26 2157.01 1353.35 2393.04 1512.7 2434.46C1666.36 2474.39 1630.06 2248.99 1692.49 2148.14Z" fill="#DEDEDE" fill-opacity="0.5"/>
<g filter="url(#filter0_b_120_161)">
<path d="M755.628 667.348C683.992 951.252 426.798 1010.01 291.177 971.421C155.555 932.831 -128.101 720.871 -74.4771 508.35C-20.8527 295.829 570.467 -38.631 706.089 -0.041068C841.71 38.5488 830.759 369.593 755.628 667.348Z" fill="url(#paint1_linear_120_161)"/>
</g>
<path d="M827.282 894.561C864.296 921.45 907.391 950.116 965.386 982.868C1063.01 1038 1231.16 1113.18 1284.96 998.293C1358.99 840.23 1185.96 777.141 1205.6 650.623C1224.65 527.877 1397.35 517.751 1368.58 392.301C1351.98 319.896 1162.29 285.28 1045.55 300.269C923.098 315.992 673.498 367.947 568.701 462.785C506.338 519.223 487.166 557.284 551.293 651.419C597.558 719.332 794.891 871.029 827.282 894.561Z" fill="url(#paint2_linear_120_161)"/>
<path fill-rule="evenodd" clip-rule="evenodd" d="M1334.06 2590.23C1428.92 2582 1547.26 2567.78 1584.03 2655.57C1626.66 2757.35 1574.12 2880.18 1478.85 2935.93C1401.61 2981.12 1319.86 2908.01 1251.71 2850.03C1203.45 2808.98 1170.38 2750.18 1189.51 2689.8C1209.05 2628.16 1269.61 2595.82 1334.06 2590.23Z" fill="#DEDEDE" fill-opacity="0.5"/>
<defs>
<filter id="filter0_b_120_161" x="-91.1389" y="-13.1073" width="911.7" height="1005.16" filterUnits="userSpaceOnUse" color-interpolation-filters="sRGB">
<feFlood flood-opacity="0" result="BackgroundImageFix"/>
<feGaussianBlur in="BackgroundImageFix" stdDeviation="5"/>
<feComposite in2="SourceAlpha" operator="in" result="effect1_backgroundBlur_120_161"/>
<feBlend mode="normal" in="SourceGraphic" in2="effect1_backgroundBlur_120_161" result="shape"/>
</filter>
<linearGradient id="paint0_linear_120_161" x1="1068.43" y1="1.20322" x2="569.056" y2="1059.53" gradientUnits="userSpaceOnUse">
<stop stop-color="#D3DCFE"/>
<stop offset="1" stop-color="#DDE3FF"/>
</linearGradient>
<linearGradient id="paint1_linear_120_161" x1="268.739" y1="903.812" x2="815.391" y2="359.043" gradientUnits="userSpaceOnUse">
<stop stop-color="#C57AFF"/>
<stop offset="0.576042" stop-color="#CA6EEB"/>
<stop offset="1" stop-color="#B37CFA"/>
</linearGradient>
<linearGradient id="paint2_linear_120_161" x1="508.151" y1="574.2" x2="1337.51" y2="690.944" gradientUnits="userSpaceOnUse">
<stop offset="0.45625" stop-color="#6263E3"/>
<stop offset="1" stop-color="#8E8FF2"/>
</linearGradient>
</defs>
</svg>
